# Blender 3.6.0
# www.blender.org
mtllib monorail_ground.mtl
o RAIL_BASE
v 0.500000 0.468194 -0.031866
v 0.500000 0.468194 0.030634
v 0.500000 0.280694 -0.031866
v 0.500000 0.405694 0.155634
v 0.500000 0.405694 0.030634
v -0.500000 0.405694 0.030634
v 0.500000 0.343194 0.155634
v 0.500000 0.343194 0.030634
v 0.500000 0.436944 0.218134
v 0.500000 0.311944 0.218134
v -0.500000 0.436944 0.218134
v -0.500000 0.436944 0.155634
v -0.500000 0.405694 0.155634
v -0.500000 0.343194 0.030634
v -0.500000 0.468194 0.030634
v -0.500000 0.468194 -0.031866
v -0.500000 0.311944 0.218134
v -0.500000 0.343194 0.155634
v 0.500000 0.280694 0.030634
v -0.500000 0.280694 0.030634
v -0.500000 0.280694 -0.031866
v 0.500000 0.311944 0.155634
v -0.500000 0.311944 0.155634
v 0.500000 0.436944 0.155634
v 0.500000 0.343194 -0.156484
v 0.500000 0.343194 -0.031484
v -0.500000 0.343194 -0.031484
v 0.500000 0.405694 -0.156484
v 0.500000 0.405694 -0.031484
v -0.500000 0.436944 -0.218984
v -0.500000 0.311944 -0.218984
v 0.500000 0.436944 -0.218984
v 0.500000 0.436944 -0.156484
v -0.500000 0.343194 -0.156484
v -0.500000 0.405694 -0.031484
v 0.500000 0.311944 -0.218984
v -0.500000 0.405694 -0.156484
v -0.500000 0.311944 -0.156484
v 0.500000 0.311944 -0.156484
v -0.500000 0.436944 -0.156484
v 0.500000 0.186769 0.072953
v -0.500000 0.186769 -0.074184
v -0.500000 0.186769 0.072953
v 0.500000 0.186769 -0.074184
vn -0.0000 -0.0000 1.0000
vn -0.0000 1.0000 -0.0000
vn 1.0000 -0.0000 -0.0000
vn -1.0000 -0.0000 -0.0000
vn -0.0000 -1.0000 -0.0000
vn -0.0000 0.4108 0.9117
vn -0.0000 -0.0000 -1.0000
vn -0.0000 0.4108 -0.9117
vt 0.171875 0.804687
vt 0.171875 0.828125
vt 0.046875 0.828125
vt 0.046875 0.804688
vt 0.468750 0.726562
vt 0.593750 0.726562
vt 0.593750 0.718750
vt 0.468750 0.718750
vt 0.171875 0.679687
vt 0.171875 0.687500
vt 0.195313 0.687500
vt 0.195313 0.679687
vt 0.484375 0.867187
vt 0.609375 0.867188
vt 0.609375 0.882813
vt 0.484375 0.882812
vt 0.179688 0.687500
vt 0.179688 0.703125
vt 0.187500 0.703125
vt 0.187500 0.687500
vt 0.171875 0.703125
vt 0.171875 0.710937
vt 0.187500 0.710937
vt 0.414063 0.750000
vt 0.414063 0.742188
vt 0.289063 0.742188
vt 0.289063 0.750000
vt 0.289063 0.765625
vt 0.414063 0.765625
vt 0.593750 0.750000
vt 0.468750 0.750000
vt 0.468750 0.742187
vt 0.593750 0.742187
vt 0.296875 0.804688
vt 0.171875 0.820312
vt 0.296875 0.820313
vt 0.296875 0.828125
s 0
usemtl mat1
f 19/1/1 2/2/1 15/3/1
f 15/3/1 20/4/1 19/1/1
f 15/5/2 2/6/2 1/7/2
f 1/7/2 16/8/2 15/5/2
f 1/9/3 2/10/3 19/11/3
f 19/11/3 3/12/3 1/9/3
f 13/13/2 4/14/2 5/15/2
f 5/15/2 6/16/2 13/13/2
f 5/17/3 4/18/3 7/19/3
f 7/19/3 8/20/3 5/17/3
f 22/19/3 24/21/3 9/22/3
f 9/22/3 10/23/3 22/19/3
f 9/24/2 24/25/2 12/26/2
f 12/26/2 11/27/2 9/24/2
f 11/28/1 17/27/1 10/24/1
f 10/24/1 9/29/1 11/28/1
f 17/23/4 11/22/4 12/21/4
f 12/21/4 23/19/4 17/23/4
f 13/18/4 6/17/4 14/20/4
f 14/20/4 18/19/4 13/18/4
f 15/10/4 16/9/4 21/12/4
f 21/12/4 20/11/4 15/10/4
f 10/30/5 17/31/5 23/32/5
f 23/32/5 22/33/5 10/30/5
f 18/32/5 14/5/5 8/6/5
f 8/6/5 7/33/5 18/32/5
f 3/12/3 19/11/3 41/11/3 44/12/3
f 19/1/6 20/4/6 43/4/6 41/1/6
f 22/34/7 23/1/7 12/35/7
f 12/35/7 24/36/7 22/34/7
f 16/2/7 1/37/7 3/34/7
f 3/34/7 21/1/7 16/2/7
f 34/13/5 25/14/5 26/15/5
f 26/15/5 27/16/5 34/13/5
f 26/17/3 25/18/3 28/19/3
f 28/19/3 29/20/3 26/17/3
f 38/19/4 40/21/4 30/22/4
f 30/22/4 31/23/4 38/19/4
f 30/24/2 40/25/2 33/26/2
f 33/26/2 32/27/2 30/24/2
f 32/28/7 36/27/7 31/24/7
f 31/24/7 30/29/7 32/28/7
f 36/23/3 32/22/3 33/21/3
f 33/21/3 39/19/3 36/23/3
f 34/18/4 27/17/4 35/20/4
f 35/20/4 37/19/4 34/18/4
f 31/30/5 36/31/5 39/32/5
f 39/32/5 38/33/5 31/30/5
f 37/32/2 35/5/2 29/6/2
f 29/6/2 28/33/2 37/32/2
f 38/34/1 39/1/1 33/35/1
f 33/35/1 40/36/1 38/34/1
f 41/6/5 43/5/5 42/8/5
f 42/8/5 44/7/5 41/6/5
f 21/1/8 3/34/8 44/34/8 42/1/8
f 20/11/4 21/12/4 42/12/4 43/11/4
o RAIL_LEFT
v -0.551906 0.187564 -0.190469
v -0.551906 0.250064 -0.190469
v 0.551844 0.250064 -0.315464
v -0.551906 0.250064 -0.315465
v 0.551844 0.375064 -0.315464
v -0.551906 0.375064 -0.377965
v 0.551844 0.375064 -0.377964
v 0.551844 0.187564 -0.377964
v 0.551844 0.250064 -0.190470
v 0.551844 0.187564 -0.190470
v -0.551906 0.187564 -0.377965
v -0.551906 0.375064 -0.315465
vn -0.0000 -0.0000 1.0000
vn -0.0000 1.0000 -0.0000
vn -0.0000 -0.0000 -1.0000
vn 1.0000 -0.0000 -0.0000
vn -0.0000 -1.0000 -0.0000
vn -1.0000 -0.0000 -0.0000
vt 0.710938 0.710938
vt 0.710938 0.585938
vt 0.718750 0.585938
vt 0.718750 0.710938
vt 0.734375 0.585938
vt 0.734375 0.710938
vt 0.750000 0.585938
vt 0.750000 0.710938
vt 0.179688 0.679688
vt 0.304688 0.679688
vt 0.304688 0.687500
vt 0.179688 0.687500
vt 0.687500 0.710938
vt 0.664062 0.710938
vt 0.664062 0.585938
vt 0.687500 0.585938
vt 0.242188 0.875000
vt 0.226562 0.875000
vt 0.218750 0.867188
vt 0.242188 0.867188
vt 0.226562 0.890625
vt 0.218750 0.890625
vt 0.203125 0.867188
vt 0.203125 0.882812
vt 0.195312 0.890625
vt 0.195312 0.867188
vt 0.218750 0.882812
s 0
usemtl mat1
f 45/38/9 54/39/9 53/40/9 46/41/9
f 47/42/10 48/43/10 46/41/10 53/40/10
f 48/43/9 47/42/9 49/44/9 56/45/9
f 56/46/10 49/47/10 51/48/10 50/49/10
f 55/50/11 50/51/11 51/52/11 52/53/11
f 49/54/12 47/55/12 52/56/12 51/57/12
f 52/56/12 47/55/12 53/58/12 54/59/12
f 52/53/13 54/39/13 45/38/13 55/50/13
f 46/60/14 48/61/14 55/62/14 45/63/14
f 48/61/14 56/64/14 50/59/14 55/62/14
o RAIL_RIGHT
v 0.551844 0.187564 0.189536
v -0.551906 0.375064 0.314531
v 0.551844 0.375064 0.377030
v 0.551844 0.375064 0.314530
v -0.551906 0.375064 0.377031
v -0.551906 0.187564 0.377031
v 0.551844 0.187564 0.377030
v 0.551844 0.250064 0.314530
v 0.551844 0.250064 0.189536
v -0.551906 0.250064 0.314531
v -0.551906 0.250064 0.189535
v -0.551906 0.187564 0.189535
vn -0.0000 -0.0000 -1.0000
vn -0.0000 1.0000 -0.0000
vn -0.0000 -0.0000 1.0000
vn 1.0000 -0.0000 -0.0000
vn -0.0000 -1.0000 -0.0000
vn -1.0000 -0.0000 -0.0000
vt 0.695312 0.585938
vt 0.703125 0.585938
vt 0.703125 0.710938
vt 0.695312 0.710938
vt 0.679688 0.710938
vt 0.679688 0.585938
vt 0.664062 0.585938
vt 0.664062 0.710938
vt 0.304688 0.671875
vt 0.304688 0.679688
vt 0.179688 0.679688
vt 0.179688 0.671875
vt 0.750000 0.585938
vt 0.750000 0.710938
vt 0.726562 0.710938
vt 0.726562 0.585938
vt 0.171875 0.890625
vt 0.179688 0.882812
vt 0.195312 0.882812
vt 0.195312 0.890625
vt 0.179688 0.867188
vt 0.171875 0.867188
vt 0.242188 0.867188
vt 0.250000 0.875000
vt 0.250000 0.890625
vt 0.242188 0.890625
vt 0.265625 0.867188
vt 0.265625 0.875000
s 0
usemtl mat1
f 65/65/15 57/66/15 68/67/15 67/68/15
f 67/68/16 66/69/16 64/70/16 65/65/16
f 60/71/15 64/70/15 66/69/15 58/72/15
f 59/73/16 60/74/16 58/75/16 61/76/16
f 59/77/17 61/78/17 62/79/17 63/80/17
f 63/81/18 64/82/18 60/83/18 59/84/18
f 65/85/18 64/82/18 63/81/18 57/86/18
f 68/67/19 57/66/19 63/80/19 62/79/19
f 62/87/20 66/88/20 67/89/20 68/90/20
f 61/91/20 58/92/20 66/88/20 62/87/20
o RAIL_BASE.002
v 0.526845 0.483661 0.436067
v 0.526845 -0.114386 0.436067
v -0.526845 0.483661 0.436067
v -0.526845 -0.114386 0.436067
v 0.526845 -0.114386 0.000000
v -0.526845 -0.114386 0.000000
v 0.526845 0.483661 0.366451
v -0.526845 -0.114386 0.366451
v 0.526845 -0.114386 0.366451
v -0.526845 0.483661 0.366451
v 0.526845 0.188465 0.436067
v -0.526845 0.188465 0.436067
v -0.526845 0.188465 -0.000000
v 0.526845 0.188465 -0.000000
v -0.526845 0.188465 0.366451
v 0.526845 0.188465 0.366451
v -0.526845 0.395102 0.436067
v 0.526845 0.395102 0.436067
v -0.526845 0.395102 0.366451
v 0.526845 0.395102 0.366451
v -0.526845 0.483661 0.290572
v 0.526845 0.483661 0.290572
v -0.526845 0.395102 0.290572
v 0.526845 0.395102 0.290572
v 0.526845 0.483661 -0.436067
v 0.526845 -0.114386 -0.436067
v -0.526845 0.483661 -0.436067
v -0.526845 -0.114386 -0.436067
v 0.526845 0.483661 -0.366451
v -0.526845 -0.114386 -0.366451
v 0.526845 -0.114386 -0.366451
v -0.526845 0.483661 -0.366451
v 0.526845 0.188465 -0.436067
v -0.526845 0.188465 -0.436067
v -0.526845 0.188465 -0.366451
v 0.526845 0.188465 -0.366451
v -0.526845 0.395102 -0.436067
v 0.526845 0.395102 -0.436067
v -0.526845 0.395102 -0.366451
v 0.526845 0.395102 -0.366451
v -0.526845 0.483661 -0.290572
v 0.526845 0.483661 -0.290572
v -0.526845 0.395102 -0.290572
v 0.526845 0.395102 -0.290572
vn -0.0000 1.0000 -0.0000
vn -0.0000 -1.0000 -0.0000
vn -0.0000 -0.0000 1.0000
vn 1.0000 -0.0000 -0.0000
vn -0.0000 -0.0000 -1.0000
vn -1.0000 -0.0000 -0.0000
vt 0.007812 0.242188
vt 0.007812 0.335938
vt -0.000000 0.335938
vt -0.000000 0.242188
vt 0.085938 0.242188
vt 0.085938 0.335938
vt 0.078125 0.335938
vt 0.078125 0.242188
vt 0.156250 0.242188
vt 0.164062 0.242188
vt 0.164062 0.335938
vt 0.156250 0.335938
vt 0.046875 0.375000
vt 0.046875 0.382812
vt 0.039062 0.382812
vt 0.039062 0.375000
vt 0.062500 0.335938
vt 0.062500 0.242188
vt -0.000000 0.343750
vt 0.007812 0.343750
vt 0.031250 0.335938
vt 0.031250 0.242188
vt 0.117188 0.242188
vt 0.117188 0.335938
vt 0.078125 0.359375
vt 0.046875 0.359375
vt 0.046875 0.335938
vt -0.000000 0.382812
vt -0.000000 0.359375
vt 0.007812 0.359375
vt 0.007812 0.382812
vt 0.039062 0.359375
vt 0.039062 0.335938
vt 0.140625 0.242188
vt 0.140625 0.335938
vt 0.023438 0.335938
vt 0.023438 0.242188
vt 0.015625 0.335938
vt 0.015625 0.242188
vt 0.054688 0.375000
vt 0.054688 0.382812
vt 0.015625 0.343750
s 0
usemtl mat1
f 75/93/21 78/94/21 71/95/21 69/96/21
f 76/97/22 77/98/22 70/99/22 72/100/22
f 86/101/23 69/102/23 71/103/23 85/104/23
f 88/105/24 75/106/24 69/107/24 86/108/24
f 88/99/25 84/109/25 83/110/25 87/100/25
f 85/111/26 71/95/26 78/94/26 87/112/26
f 82/110/21 81/109/21 83/113/21 84/114/21
f 74/115/22 73/116/22 77/98/22 76/97/22
f 73/99/24 82/117/24 84/118/24 77/119/24
f 72/120/26 80/121/26 83/122/26 76/123/26
f 76/123/26 83/122/26 81/124/26 74/107/26
f 77/119/24 84/118/24 79/124/24 70/125/24
f 70/115/23 79/126/23 80/127/23 72/116/23
f 80/121/26 85/111/26 87/112/26 83/122/26
f 88/128/22 87/129/22 91/114/22 92/113/22
f 84/118/24 88/105/24 86/108/24 79/124/24
f 79/126/23 86/101/23 85/104/23 80/127/23
f 90/128/25 92/130/25 91/131/25 89/129/25
f 75/106/24 88/105/24 92/132/24 90/133/24
f 87/134/26 78/130/26 89/94/26 91/112/26
f 78/94/21 75/93/21 90/131/21 89/130/21
f 97/93/21 93/96/21 95/95/21 100/94/21
f 98/97/22 96/100/22 94/99/22 99/98/22
f 106/101/25 105/104/25 95/103/25 93/102/25
f 108/105/24 106/108/24 93/107/24 97/106/24
f 108/99/23 107/100/23 103/110/23 104/109/23
f 105/111/26 107/112/26 100/94/26 95/95/26
f 82/110/21 104/114/21 103/113/21 81/109/21
f 74/115/22 98/97/22 99/98/22 73/116/22
f 73/99/24 99/119/24 104/118/24 82/117/24
f 96/120/26 98/123/26 103/122/26 102/121/26
f 98/123/26 74/107/26 81/124/26 103/122/26
f 99/119/24 94/125/24 101/124/24 104/118/24
f 94/115/25 96/116/25 102/127/25 101/126/25
f 102/121/26 103/122/26 107/112/26 105/111/26
f 108/128/22 112/113/22 111/114/22 107/129/22
f 104/118/24 101/124/24 106/108/24 108/105/24
f 101/126/25 102/127/25 105/104/25 106/101/25
f 110/128/23 109/129/23 111/131/23 112/130/23
f 97/106/24 110/133/24 112/132/24 108/105/24
f 107/134/26 111/112/26 109/94/26 100/130/26
f 100/94/21 109/130/21 110/131/21 97/93/21
