# Blender v2.79 (sub 0) OBJ File: ''
# www.blender.org
mtllib mvp_ir_crossbridge.mtl
o RAIL_LEFT_crossbridge
v 0.500000 -0.000000 0.937500
v -0.500000 -0.000000 0.937500
v -0.500000 0.375000 0.937500
v 0.500000 0.375000 0.937500
v -0.500000 0.375000 2.000000
v 0.500000 0.375000 2.000000
v -0.500000 0.062498 4.000000
v 0.500000 0.062498 4.000000
v -0.500000 -0.000002 4.000000
v 0.500000 -0.000002 4.000000
v 0.500000 0.375000 1.062500
v -0.500000 0.375000 1.062500
v -0.500000 0.437500 1.062500
v 0.500000 0.437500 1.062500
v 0.500000 0.437500 1.187500
v -0.500000 0.437500 1.187500
v -0.375000 0.437500 1.062500
v 0.375000 0.437500 1.062500
v 0.375000 0.437500 0.937500
v -0.375000 0.437500 0.937500
v -0.375000 0.375000 1.062500
v -0.375000 0.375000 0.937500
v 0.375000 0.375000 1.062500
v 0.375000 0.375000 0.937500
v -0.393306 0.375000 1.000000
v -0.437500 0.375000 0.955806
v -0.437500 0.437500 0.955806
v -0.393306 0.437500 1.000000
v -0.437500 0.375000 1.044194
v -0.437500 0.437500 1.044194
v -0.481694 0.375000 1.000000
v -0.481694 0.437500 1.000000
v 0.481694 0.375000 1.000000
v 0.437500 0.375000 0.955806
v 0.437500 0.437500 0.955806
v 0.481694 0.437500 1.000000
v 0.437500 0.375000 1.044194
v 0.437500 0.437500 1.044194
v 0.393306 0.375000 1.000000
v 0.393306 0.437500 1.000000
vt 0.562500 0.171875
vt 0.562500 0.046875
vt 0.609375 0.046875
vt 0.609375 0.171875
vt 0.742188 0.046875
vt 0.742188 0.171875
vt 0.992188 0.046875
vt 0.992188 0.171875
vt 1.000000 0.046875
vt 1.000000 0.171875
vt 0.992188 0.218750
vt 0.992188 0.343750
vt 0.609375 0.343750
vt 0.609375 0.218750
vt 0.609375 0.000000
vt 0.992188 0.000000
vt 0.992188 0.007812
vt 0.992188 0.210938
vt 0.289062 0.000000
vt 0.414062 0.000000
vt 0.414062 0.007812
vt 0.289062 0.007812
vt 0.281250 0.125000
vt 0.281250 0.007812
vt 0.289062 0.023438
vt 0.414062 0.125000
vt 0.289062 0.125000
vt 0.414062 0.023438
vt 0.421875 0.007812
vt 0.421875 0.125000
vt 0.109375 0.109375
vt 0.109375 0.015625
vt 0.125000 0.015625
vt 0.125000 0.109375
vt 0.109375 0.117188
vt 0.125000 0.117188
vt 0.109375 0.007812
vt 0.125000 0.007812
vt 0.132812 0.015625
vt 0.132812 0.109375
vt 0.015625 0.171875
vt 0.007812 0.171875
vt 0.007812 0.164062
vt 0.015625 0.164062
vt 0.023438 0.171875
vt 0.023438 0.164062
vt 0.031250 0.171875
vt 0.031250 0.164062
vt 0.039062 0.171875
vt 0.039062 0.164062
vt 0.031250 0.156250
vt 0.039062 0.156250
vt 0.062500 0.125000
vt 0.070312 0.125000
vt 0.070312 0.132812
vt 0.062500 0.132812
vt 0.054688 0.125000
vt 0.054688 0.132812
vt 0.046875 0.125000
vt 0.046875 0.132812
vt 0.039062 0.125000
vt 0.039062 0.132812
vt 0.070312 0.140625
vt 0.062500 0.140625
vn 0.0000 0.0000 -1.0000
vn 0.0000 1.0000 0.0000
vn 0.0000 0.9880 0.1544
vn 0.0000 0.0000 1.0000
vn 0.0000 -1.0000 -0.0000
vn -1.0000 0.0000 0.0000
vn 1.0000 0.0000 0.0000
vn 0.0000 0.9971 0.0767
vn 0.7071 0.0000 -0.7071
vn 0.7071 0.0000 0.7071
vn -0.7071 0.0000 0.7071
vn -0.7071 0.0000 -0.7071
usemtl mat1
s off
f 1/1/1 2/2/1 3/3/1 4/4/1
f 5/5/2 6/6/2 4/4/2 3/3/2
f 6/6/3 5/5/3 7/7/3 8/8/3
f 9/9/4 10/10/4 8/8/4 7/7/4
f 10/11/5 9/12/5 2/13/5 1/14/5
f 3/3/6 2/15/6 5/5/6
f 9/16/6 7/17/6 5/5/6 2/15/6
f 4/4/7 6/6/7 1/14/7
f 1/14/7 6/6/7 8/18/7 10/11/7
f 11/19/1 12/20/1 13/21/1 14/22/1
f 6/23/7 11/24/7 14/22/7 15/25/7
f 5/26/8 6/27/8 15/25/8 16/28/8
f 12/29/6 5/30/6 16/28/6 13/21/6
f 16/28/2 15/25/2 14/22/2 13/21/2
f 17/31/2 18/32/2 19/33/2 20/34/2
f 21/35/6 17/31/6 20/34/6 22/36/6
f 18/32/7 23/37/7 24/38/7 19/33/7
f 24/39/1 22/40/1 20/34/1 19/33/1
f 25/41/9 26/42/9 27/43/9 28/44/9
f 29/45/10 25/41/10 28/44/10 30/46/10
f 31/47/11 29/45/11 30/46/11 32/48/11
f 26/49/12 31/47/12 32/48/12 27/50/12
f 32/48/2 30/51/2 28/52/2 27/50/2
f 33/53/9 34/54/9 35/55/9 36/56/9
f 37/57/10 33/53/10 36/56/10 38/58/10
f 39/59/11 37/57/11 38/58/11 40/60/11
f 34/61/12 39/59/12 40/60/12 35/62/12
f 40/63/2 38/64/2 36/56/2 35/55/2
o RAIL_RIGHT_crossbridge
v -0.500000 0.000000 -0.937500
v 0.500000 0.000000 -0.937500
v 0.500000 0.375000 -0.937500
v -0.500000 0.375000 -0.937500
v 0.500000 0.375000 -2.000000
v -0.500000 0.375000 -2.000000
v 0.500000 0.062502 -4.000000
v -0.500000 0.062502 -4.000000
v 0.500000 0.000002 -4.000000
v -0.500000 0.000002 -4.000000
v -0.500000 0.437500 -1.187500
v 0.500000 0.437500 -1.187500
v 0.500000 0.375000 -1.062500
v 0.500000 0.437500 -1.062500
v -0.500000 0.375000 -1.062500
v -0.500000 0.437500 -1.062500
v 0.375000 0.437500 -1.062500
v -0.375000 0.437500 -1.062500
v -0.375000 0.437500 -0.937500
v 0.375000 0.437500 -0.937500
v 0.375000 0.375000 -1.062500
v 0.375000 0.375000 -0.937500
v -0.375000 0.375000 -1.062500
v -0.375000 0.375000 -0.937500
v -0.393306 0.375000 -1.000000
v -0.437500 0.375000 -1.044194
v -0.437500 0.437500 -1.044194
v -0.393306 0.437500 -1.000000
v -0.437500 0.375000 -0.955806
v -0.437500 0.437500 -0.955806
v -0.481694 0.375000 -1.000000
v -0.481694 0.437500 -1.000000
v 0.481694 0.375000 -1.000000
v 0.437500 0.375000 -1.044194
v 0.437500 0.437500 -1.044194
v 0.481694 0.437500 -1.000000
v 0.437500 0.375000 -0.955806
v 0.437500 0.437500 -0.955806
v 0.393306 0.375000 -1.000000
v 0.393306 0.437500 -1.000000
vt 0.562500 0.171875
vt 0.562500 0.046875
vt 0.609375 0.046875
vt 0.609375 0.171875
vt 0.742188 0.046875
vt 0.742188 0.171875
vt 0.992188 0.046875
vt 0.992188 0.171875
vt 1.000000 0.046875
vt 1.000000 0.171875
vt 0.609375 0.218750
vt 0.992188 0.218750
vt 0.992188 0.343750
vt 0.609375 0.343750
vt 0.992188 0.210938
vt 0.609375 0.000000
vt 0.992188 0.000000
vt 0.992188 0.007812
vt 0.554688 0.125000
vt 0.429688 0.125000
vt 0.429688 0.023438
vt 0.554688 0.023438
vt 0.562500 0.007812
vt 0.562500 0.125000
vt 0.554688 0.007812
vt 0.429688 0.000000
vt 0.554688 0.000000
vt 0.429688 0.007812
vt 0.421875 0.125000
vt 0.421875 0.007812
vt 0.109375 0.015625
vt 0.109375 0.109375
vt 0.093750 0.109375
vt 0.093750 0.015625
vt 0.109375 0.007812
vt 0.093750 0.007812
vt 0.109375 0.117188
vt 0.093750 0.117188
vt 0.085938 0.109375
vt 0.085938 0.015625
vt 0.062500 0.148438
vt 0.054688 0.148438
vt 0.054688 0.140625
vt 0.062500 0.140625
vt 0.070312 0.148438
vt 0.070312 0.140625
vt 0.046875 0.148438
vt 0.039062 0.148438
vt 0.039062 0.140625
vt 0.046875 0.140625
vt 0.039062 0.132812
vt 0.046875 0.132812
vt 0.015625 0.148438
vt 0.023438 0.148438
vt 0.023438 0.156250
vt 0.015625 0.156250
vt 0.007812 0.148438
vt 0.007812 0.156250
vt 0.031250 0.148438
vt 0.039062 0.148438
vt 0.039062 0.156250
vt 0.031250 0.156250
vt 0.007812 0.164062
vt 0.015625 0.164062
vn 0.0000 -0.0000 1.0000
vn 0.0000 1.0000 0.0000
vn 0.0000 0.9880 -0.1544
vn 0.0000 0.0000 -1.0000
vn 0.0000 -1.0000 -0.0000
vn -1.0000 -0.0000 0.0000
vn 1.0000 -0.0000 0.0000
vn 0.0000 0.9971 -0.0767
vn 0.7071 0.0000 -0.7071
vn 0.7071 0.0000 0.7071
vn -0.7071 0.0000 0.7071
vn -0.7071 0.0000 -0.7071
usemtl mat1
s off
f 41/65/13 42/66/13 43/67/13 44/68/13
f 44/68/14 43/67/14 45/69/14 46/70/14
f 46/70/15 45/69/15 47/71/15 48/72/15
f 49/73/16 50/74/16 48/72/16 47/71/16
f 41/75/17 50/76/17 49/77/17 42/78/17
f 44/68/18 46/70/18 41/75/18
f 41/75/18 46/70/18 48/79/18 50/76/18
f 45/69/19 43/67/19 42/80/19
f 49/81/19 47/82/19 45/69/19 42/80/19
f 45/83/20 46/84/20 51/85/20 52/86/20
f 53/87/19 45/88/19 52/86/19 54/89/19
f 55/90/13 53/91/13 54/89/13 56/92/13
f 46/93/18 55/94/18 56/92/18 51/85/18
f 56/92/14 54/89/14 52/86/14 51/85/14
f 57/95/14 58/96/14 59/97/14 60/98/14
f 61/99/19 57/95/19 60/98/19 62/100/19
f 58/96/18 63/101/18 64/102/18 59/97/18
f 64/103/13 62/104/13 60/98/13 59/97/13
f 65/105/21 66/106/21 67/107/21 68/108/21
f 69/109/22 65/105/22 68/108/22 70/110/22
f 71/111/23 69/112/23 70/113/23 72/114/23
f 66/106/24 71/111/24 72/114/24 67/107/24
f 72/114/14 70/113/14 68/115/14 67/116/14
f 73/117/21 74/118/21 75/119/21 76/120/21
f 77/121/22 73/117/22 76/120/22 78/122/22
f 79/123/23 77/124/23 78/125/23 80/126/23
f 74/118/24 79/123/24 80/126/24 75/119/24
f 80/127/14 78/122/14 76/120/14 75/128/14
o RAIL_BASE_crossbridge
v 0.500000 0.000000 -0.687500
v -0.500000 0.000000 -0.687500
v -0.500000 0.375000 -0.687500
v 0.500000 0.375000 -0.687500
v 0.500000 -0.000000 0.687500
v 0.500000 0.375000 0.687500
v -0.500000 -0.000000 0.687500
v -0.500000 0.375000 0.687500
v 0.500000 0.188125 0.687500
v -0.500000 0.188125 0.687500
v -0.500000 0.188125 0.937500
v 0.500000 0.188125 0.937500
v 0.500000 -0.000000 0.937500
v -0.500000 -0.000000 0.937500
v 0.500000 0.188125 -0.937500
v -0.500000 0.188125 -0.937500
v -0.500000 0.188125 -0.687500
v 0.500000 0.188125 -0.687500
v 0.500000 0.000000 -0.937500
v -0.500000 0.000000 -0.937500
v 0.500000 0.375000 0.562500
v 0.500000 0.375000 -0.562500
v 0.500000 0.437500 -0.562500
v 0.500000 0.437500 0.562500
v -0.500000 0.375000 -0.562500
v -0.500000 0.375000 0.562500
v -0.500000 0.437500 0.562500
v -0.500000 0.437500 -0.562500
v -0.375000 0.437500 -0.562500
v 0.375000 0.437500 -0.562500
v 0.375000 0.437500 -0.687500
v -0.375000 0.437500 -0.687500
v -0.375000 0.375000 -0.562500
v -0.375000 0.375000 -0.687500
v 0.375000 0.375000 -0.562500
v 0.375000 0.375000 -0.687500
v 0.375000 0.437500 0.562500
v -0.375000 0.437500 0.562500
v -0.375000 0.437500 0.687500
v 0.375000 0.437500 0.687500
v 0.375000 0.375000 0.562500
v 0.375000 0.375000 0.687500
v -0.375000 0.375000 0.562500
v -0.375000 0.375000 0.687500
v -0.393306 0.375000 -0.625000
v -0.437500 0.375000 -0.669194
v -0.437500 0.437500 -0.669194
v -0.393306 0.437500 -0.625000
v -0.437500 0.375000 -0.580806
v -0.437500 0.437500 -0.580806
v -0.481694 0.375000 -0.625000
v -0.481694 0.437500 -0.625000
v 0.481694 0.375000 -0.625000
v 0.437500 0.375000 -0.669194
v 0.437500 0.437500 -0.669194
v 0.481694 0.437500 -0.625000
v 0.437500 0.375000 -0.580806
v 0.437500 0.437500 -0.580806
v 0.393306 0.375000 -0.625000
v 0.393306 0.437500 -0.625000
v -0.393306 0.375000 0.625000
v -0.437500 0.375000 0.580806
v -0.437500 0.437500 0.580806
v -0.393306 0.437500 0.625000
v -0.437500 0.375000 0.669194
v -0.437500 0.437500 0.669194
v -0.481694 0.375000 0.625000
v -0.481694 0.437500 0.625000
v 0.481694 0.375000 0.625000
v 0.437500 0.375000 0.580806
v 0.437500 0.437500 0.580806
v 0.481694 0.437500 0.625000
v 0.437500 0.375000 0.669194
v 0.437500 0.437500 0.669194
v 0.393306 0.375000 0.625000
v 0.393306 0.437500 0.625000
vt 0.046875 0.375000
vt 0.171875 0.375000
vt 0.171875 0.421875
vt 0.046875 0.421875
vt 0.046875 0.203125
vt 0.000000 0.375000
vt 0.000000 0.203125
vt 0.171875 0.203125
vt 0.046875 0.156250
vt 0.171875 0.156250
vt 0.218750 0.203125
vt 0.218750 0.375000
vt 0.343750 0.203125
vt 0.343750 0.375000
vt 0.203125 0.164062
vt 0.328125 0.164062
vt 0.328125 0.195312
vt 0.203125 0.195312
vt 0.179688 0.164062
vt 0.179688 0.195312
vt 0.351562 0.164062
vt 0.476562 0.164062
vt 0.476562 0.195312
vt 0.351562 0.195312
vt 0.718750 0.351562
vt 0.843750 0.351562
vt 0.843750 0.382812
vt 0.718750 0.382812
vt 0.695312 0.351562
vt 0.695312 0.382812
vt 0.867188 0.351562
vt 0.992188 0.351562
vt 0.992188 0.382812
vt 0.867188 0.382812
vt 0.140625 0.148438
vt 0.140625 0.007812
vt 0.148438 0.007812
vt 0.148438 0.148438
vt 0.281250 0.007812
vt 0.281250 0.148438
vt 0.273438 0.148438
vt 0.273438 0.007812
vt 0.148438 0.000000
vt 0.273438 0.000000
vt 0.273438 0.156250
vt 0.148438 0.156250
vt 0.054688 0.015625
vt 0.054688 0.109375
vt 0.039062 0.109375
vt 0.039062 0.015625
vt 0.054688 0.007812
vt 0.039062 0.007812
vt 0.054688 0.117188
vt 0.039062 0.117188
vt 0.031250 0.109375
vt 0.031250 0.015625
vt 0.054688 0.109375
vt 0.054688 0.015625
vt 0.070312 0.015625
vt 0.070312 0.109375
vt 0.054688 0.117188
vt 0.070312 0.117188
vt 0.054688 0.007812
vt 0.070312 0.007812
vt 0.078125 0.015625
vt 0.078125 0.109375
vt 0.015625 0.195312
vt 0.007812 0.195312
vt 0.007812 0.187500
vt 0.015625 0.187500
vt 0.023438 0.195312
vt 0.023438 0.187500
vt 0.031250 0.195312
vt 0.031250 0.187500
vt 0.039062 0.195312
vt 0.039062 0.187500
vt 0.031250 0.179688
vt 0.039062 0.179688
vt 0.031250 0.125000
vt 0.039062 0.125000
vt 0.039062 0.132812
vt 0.031250 0.132812
vt 0.023438 0.125000
vt 0.023438 0.132812
vt 0.015625 0.125000
vt 0.015625 0.132812
vt 0.007812 0.125000
vt 0.007812 0.132812
vt 0.039062 0.140625
vt 0.031250 0.140625
vt 0.031250 0.148438
vt 0.023438 0.148438
vt 0.023438 0.140625
vt 0.031250 0.140625
vt 0.039062 0.148438
vt 0.039062 0.140625
vt 0.015625 0.148438
vt 0.007812 0.148438
vt 0.007812 0.140625
vt 0.015625 0.140625
vt 0.007812 0.132812
vt 0.015625 0.132812
vt 0.015625 0.171875
vt 0.023438 0.171875
vt 0.023438 0.179688
vt 0.015625 0.179688
vt 0.007812 0.171875
vt 0.007812 0.179688
vt 0.031250 0.171875
vt 0.039062 0.171875
vt 0.039062 0.179688
vt 0.031250 0.179688
vt 0.007812 0.187500
vt 0.015625 0.187500
vn 0.0000 0.0000 -1.0000
vn 1.0000 0.0000 0.0000
vn 0.0000 -0.0000 1.0000
vn -1.0000 0.0000 0.0000
vn 0.0000 1.0000 0.0000
vn 0.0000 -1.0000 -0.0000
vn 0.7071 0.0000 -0.7071
vn 0.7071 0.0000 0.7071
vn -0.7071 0.0000 0.7071
vn -0.7071 0.0000 -0.7071
usemtl mat1
s off
f 81/129/25 82/130/25 83/131/25 84/132/25
f 85/133/26 81/129/26 84/134/26 86/135/26
f 87/136/27 85/133/27 86/137/27 88/138/27
f 82/130/28 87/136/28 88/139/28 83/140/28
f 88/139/29 86/141/29 84/142/29 83/140/29
f 85/133/30 87/136/30 82/130/30 81/129/30
f 89/143/29 90/144/29 91/145/29 92/146/29
f 85/147/26 89/143/26 92/146/26 93/148/26
f 87/149/30 85/150/30 93/151/30 94/152/30
f 90/144/28 87/149/28 94/152/28 91/145/28
f 95/153/29 96/154/29 97/155/29 98/156/29
f 99/157/26 95/153/26 98/156/26 81/158/26
f 100/159/30 99/160/30 81/161/30 82/162/30
f 96/154/28 100/159/28 82/162/28 97/155/28
f 101/163/26 102/164/26 103/165/26 104/166/26
f 105/167/28 106/168/28 107/169/28 108/170/28
f 108/170/25 103/165/25 102/171/25 105/172/25
f 104/166/27 107/169/27 106/173/27 101/174/27
f 104/166/29 103/165/29 108/170/29 107/169/29
f 109/175/29 110/176/29 111/177/29 112/178/29
f 113/179/28 109/175/28 112/178/28 114/180/28
f 110/176/26 115/181/26 116/182/26 111/177/26
f 116/183/25 114/184/25 112/178/25 111/177/25
f 117/185/29 118/186/29 119/187/29 120/188/29
f 121/189/26 117/185/26 120/188/26 122/190/26
f 118/186/28 123/191/28 124/192/28 119/187/28
f 124/193/27 122/194/27 120/188/27 119/187/27
f 125/195/31 126/196/31 127/197/31 128/198/31
f 129/199/32 125/195/32 128/198/32 130/200/32
f 131/201/33 129/199/33 130/200/33 132/202/33
f 126/203/34 131/201/34 132/202/34 127/204/34
f 132/202/29 130/205/29 128/206/29 127/204/29
f 133/207/31 134/208/31 135/209/31 136/210/31
f 137/211/32 133/207/32 136/210/32 138/212/32
f 139/213/33 137/211/33 138/212/33 140/214/33
f 134/215/34 139/213/34 140/214/34 135/216/34
f 140/217/29 138/218/29 136/210/29 135/209/29
f 141/219/31 142/220/31 143/221/31 144/222/31
f 145/223/32 141/219/32 144/222/32 146/224/32
f 147/225/33 145/226/33 146/227/33 148/228/33
f 142/220/34 147/225/34 148/228/34 143/221/34
f 148/228/29 146/227/29 144/229/29 143/230/29
f 149/231/31 150/232/31 151/233/31 152/234/31
f 153/235/32 149/231/32 152/234/32 154/236/32
f 155/237/33 153/238/33 154/239/33 156/240/33
f 150/232/34 155/237/34 156/240/34 151/233/34
f 156/241/29 154/236/29 152/234/29 151/242/29
