# Blender v2.79 (sub 0) OBJ File: ''
# www.blender.org
mtllib mvp_ir_elfrail.mtl
o RAIL_LEFT_elfwire
v -0.500000 -0.281250 0.031251
v 0.500000 -0.281250 0.031251
v 0.500000 -0.218750 0.031251
v -0.500000 -0.218750 0.031251
v 0.500000 -0.281250 0.031251
v 0.500000 -0.281250 -0.031249
v 0.500000 -0.218750 -0.031249
v 0.500000 -0.218750 0.031251
v 0.500000 -0.281250 -0.031249
v -0.500000 -0.281250 -0.031249
v -0.500000 -0.218750 -0.031249
v 0.500000 -0.218750 -0.031249
v -0.500000 -0.281250 -0.031249
v -0.500000 -0.281250 0.031251
v -0.500000 -0.218750 0.031251
v -0.500000 -0.218750 -0.031249
v -0.500000 -0.218750 0.031251
v 0.500000 -0.218750 0.031251
v 0.500000 -0.218750 -0.031249
v -0.500000 -0.218750 -0.031249
v -0.500000 -0.281250 -0.031249
v 0.500000 -0.281250 -0.031249
v 0.500000 -0.281250 0.031251
v -0.500000 -0.281250 0.031251
vt 0.859380 0.664060
vt 0.984380 0.664060
vt 0.984380 0.671880
vt 0.859380 0.671880
vt 0.851560 0.679690
vt 0.859380 0.679690
vt 0.859380 0.687500
vt 0.851560 0.687500
vt 0.984380 0.679690
vt 0.859380 0.679690
vt 0.859380 0.687500
vt 0.984380 0.687500
vt 0.859380 0.664060
vt 0.851560 0.664060
vt 0.851560 0.671880
vt 0.859380 0.671880
vt 0.859380 0.648440
vt 0.984380 0.648440
vt 0.984380 0.656250
vt 0.859380 0.656250
vt 0.859380 0.640630
vt 0.984380 0.640630
vt 0.984380 0.632810
vt 0.859380 0.632810
vn 0.0000 -0.0000 1.0000
vn 1.0000 0.0000 0.0000
vn 0.0000 0.0000 -1.0000
vn -1.0000 0.0000 0.0000
vn 0.0000 1.0000 0.0000
vn 0.0000 -1.0000 0.0000
usemtl mat1
s 1
f 1/1/1 2/2/1 3/3/1 4/4/1
f 5/5/2 6/6/2 7/7/2 8/8/2
f 9/9/3 10/10/3 11/11/3 12/12/3
f 13/13/4 14/14/4 15/15/4 16/16/4
f 17/17/5 18/18/5 19/19/5 20/20/5
f 21/21/6 22/22/6 23/23/6 24/24/6
o RAIL_RIGHT_elfwire
v -0.500000 -1.093750 0.031251
v 0.500000 -1.093750 0.031251
v 0.500000 -1.031250 0.031251
v -0.500000 -1.031250 0.031251
v 0.500000 -1.093750 -0.031249
v -0.500000 -1.093750 -0.031249
v -0.500000 -1.031250 -0.031249
v 0.500000 -1.031250 -0.031249
v -0.500000 -1.031250 0.031251
v 0.500000 -1.031250 0.031251
v 0.500000 -1.031250 -0.031249
v -0.500000 -1.031250 -0.031249
v -0.500000 -1.093750 -0.031249
v 0.500000 -1.093750 -0.031249
v 0.500000 -1.093750 0.031251
v -0.500000 -1.093750 0.031251
vt 0.859380 0.656250
vt 0.984380 0.656250
vt 0.984380 0.664060
vt 0.859380 0.664060
vt 0.984380 0.671880
vt 0.859380 0.671880
vt 0.859380 0.679690
vt 0.984380 0.679690
vt 0.859380 0.640630
vt 0.984380 0.640630
vt 0.984380 0.648440
vt 0.859380 0.648440
vt 0.859380 0.632810
vt 0.984380 0.632810
vt 0.984380 0.625000
vt 0.859380 0.625000
vn 0.0000 -0.0000 1.0000
vn 0.0000 0.0000 -1.0000
vn 0.0000 1.0000 0.0000
vn 0.0000 -1.0000 0.0000
usemtl mat1
s 1
f 25/25/7 26/26/7 27/27/7 28/28/7
f 29/29/8 30/30/8 31/31/8 32/32/8
f 33/33/9 34/34/9 35/35/9 36/36/9
f 37/37/10 38/38/10 39/39/10 40/40/10
o RAIL_BASE_elfwire
v -0.500000 -1.093750 0.031251
v 0.500000 -1.093750 0.031251
v 0.500000 -1.031250 0.031251
v -0.500000 -1.031250 0.031251
v 0.500000 -1.093750 0.031251
v 0.500000 -1.093750 -0.031249
v 0.500000 -1.031250 -0.031249
v 0.500000 -1.031250 0.031251
v 0.500000 -1.093750 -0.031249
v -0.500000 -1.093750 -0.031249
v -0.500000 -1.031250 -0.031249
v 0.500000 -1.031250 -0.031249
v -0.500000 -1.093750 -0.031249
v -0.500000 -1.093750 0.031251
v -0.500000 -1.031250 0.031251
v -0.500000 -1.031250 -0.031249
v -0.500000 -1.031250 0.031251
v 0.500000 -1.031250 0.031251
v 0.500000 -1.031250 -0.031249
v -0.500000 -1.031250 -0.031249
v -0.500000 -1.093750 -0.031249
v 0.500000 -1.093750 -0.031249
v 0.500000 -1.093750 0.031251
v -0.500000 -1.093750 0.031251
vt 0.859380 0.656250
vt 0.984380 0.656250
vt 0.984380 0.664060
vt 0.859380 0.664060
vt 0.851560 0.671880
vt 0.859380 0.671880
vt 0.859380 0.679690
vt 0.851560 0.679690
vt 0.984380 0.671880
vt 0.859380 0.671880
vt 0.859380 0.679690
vt 0.984380 0.679690
vt 0.859380 0.656250
vt 0.851560 0.656250
vt 0.851560 0.664060
vt 0.859380 0.664060
vt 0.859380 0.640630
vt 0.984380 0.640630
vt 0.984380 0.648440
vt 0.859380 0.648440
vt 0.859380 0.632810
vt 0.984380 0.632810
vt 0.984380 0.625000
vt 0.859380 0.625000
vn 0.0000 -0.0000 1.0000
vn 1.0000 0.0000 0.0000
vn 0.0000 0.0000 -1.0000
vn -1.0000 0.0000 0.0000
vn 0.0000 1.0000 0.0000
vn 0.0000 -1.0000 0.0000
usemtl mat1
s 1
f 41/41/11 42/42/11 43/43/11 44/44/11
f 45/45/12 46/46/12 47/47/12 48/48/12
f 49/49/13 50/50/13 51/51/13 52/52/13
f 53/53/14 54/54/14 55/55/14 56/56/14
f 57/57/15 58/58/15 59/59/15 60/60/15
f 61/61/16 62/62/16 63/63/16 64/64/16
