# Blender v2.79 (sub 0) OBJ File: ''
# www.blender.org
mtllib mvp_ir_deadend.mtl
o RAIL_BASE_deadend
v 2.999990 0.000000 -1.437495
v -1.999993 0.000000 -1.437495
v -1.999993 0.125000 -1.437495
v 2.999990 0.125000 -1.437495
v -1.999993 -0.000000 1.437495
v -1.999993 0.125000 1.437495
v 2.999990 -0.000000 1.437495
v 2.999990 0.125000 1.437495
v 2.124993 0.500000 0.937497
v -0.125000 0.500000 0.937497
v -0.124999 0.500000 -0.937497
v 2.124993 0.500000 -0.937497
v 2.124993 1.125000 0.937497
v -0.125000 1.125000 0.937497
v -0.124999 1.125000 -0.937497
v 2.124992 1.125000 -0.937497
v 1.999993 1.125000 0.812497
v 0.000000 1.125000 0.812497
v 0.000000 1.125000 -0.812497
v 1.999993 1.125000 -0.812497
v 1.999993 0.937500 0.812497
v 0.000000 0.937500 0.812497
v 0.000000 0.937500 -0.812497
v 1.999993 0.937500 -0.812497
v -0.807671 0.425297 -0.937497
v -0.807671 0.425298 0.187499
v -0.195198 0.550477 0.187499
v -0.195198 0.550477 -0.937497
v -0.182677 0.489215 0.187499
v -0.795150 0.364035 0.187499
v -0.795150 0.364035 -0.937497
v -0.182677 0.489215 -0.937497
v -0.807671 0.425298 0.312499
v -0.795150 0.364035 0.312499
v -0.795150 0.364035 0.812497
v -0.807671 0.425298 0.812497
v -0.195198 0.550477 0.312499
v -0.195198 0.550477 0.812497
v -0.182677 0.489215 0.312499
v -0.182677 0.489215 0.812497
v -1.401830 0.309205 -0.033877
v -1.389580 0.247889 -0.033773
v -1.628410 0.200918 0.402992
v -1.640660 0.262234 0.402887
v -0.866432 0.416680 0.270442
v -1.105263 0.369709 0.707206
v -0.854182 0.355363 0.270546
v -1.093013 0.308392 0.707311
v -1.586574 0.270902 -0.602992
v -1.574054 0.209640 -0.602992
v -1.574053 0.209640 -0.102993
v -1.586574 0.270902 -0.102994
v -0.974102 0.396081 -0.602991
v -0.974102 0.396081 -0.102993
v -0.961581 0.334819 -0.602991
v -0.961581 0.334819 -0.102993
v 0.499998 0.496469 0.937277
v -0.062500 0.496469 0.937277
v -0.062500 0.546589 0.974617
v 0.499998 0.546589 0.974617
v 0.499998 0.160412 1.388354
v 0.499998 0.210532 1.425694
v -0.062500 0.160412 1.388354
v -0.062500 0.210532 1.425693
v 1.749994 0.210532 1.425694
v 1.749994 0.160412 1.388354
v 2.437491 0.160412 1.388354
v 2.437491 0.210532 1.425693
v 1.749994 0.397230 1.175095
v 2.437491 0.397230 1.175095
v 1.749994 0.347110 1.137756
v 2.437491 0.347110 1.137756
v -0.125000 0.471909 1.074856
v -0.125000 0.421790 1.037516
v -0.499998 0.421790 1.037516
v -0.499998 0.471909 1.074856
v -0.125000 0.210532 1.425694
v -0.499998 0.210532 1.425694
v -0.124999 0.160412 1.388354
v -0.499998 0.160412 1.388354
v -0.624998 0.359890 1.225215
v -0.624998 0.309771 1.187876
v -1.062496 0.309771 1.187875
v -1.062496 0.359890 1.225215
v -0.624998 0.160412 1.388354
v -0.624998 0.210532 1.425694
v -1.312495 0.210532 1.425694
v -1.312495 0.160412 1.388354
v -1.312496 0.197752 1.338234
v -1.312495 0.247872 1.375574
v -0.624998 0.247872 1.375574
v 1.749994 0.496469 0.937277
v 1.749994 0.546589 0.974617
v 1.999993 0.546589 0.974616
v 1.999993 0.496469 0.937277
v 1.749994 0.434570 1.124976
v 1.749994 0.384450 1.087636
v 2.187492 0.384450 1.087636
v 2.187492 0.434570 1.124975
v 2.187493 0.471909 1.074856
v 2.187493 0.421790 1.037517
v -0.062500 0.546588 -0.974617
v -0.062500 0.496469 -0.937277
v 0.562498 0.496469 -0.937277
v 0.562498 0.546588 -0.974617
v 0.562498 0.160412 -1.388354
v 0.562498 0.210532 -1.425694
v -0.062500 0.160412 -1.388354
v -0.062500 0.210532 -1.425694
v 2.437492 0.160412 -1.388354
v 1.749994 0.160412 -1.388354
v 1.749994 0.210532 -1.425694
v 2.437492 0.210532 -1.425694
v 1.749994 0.397230 -1.175095
v 2.437492 0.397230 -1.175095
v 1.749994 0.347110 -1.137756
v 2.437491 0.347110 -1.137756
v -0.499998 0.421789 -1.037517
v -0.124999 0.421789 -1.037517
v -0.125000 0.471909 -1.074856
v -0.499998 0.471909 -1.074856
v -0.124999 0.210532 -1.425693
v -0.499998 0.210532 -1.425694
v -0.124999 0.160412 -1.388354
v -0.499998 0.160412 -1.388354
v -1.062496 0.309770 -1.187875
v -0.562498 0.309770 -1.187875
v -0.562498 0.359890 -1.225215
v -1.062496 0.359890 -1.225215
v -1.312495 0.210532 -1.425694
v -0.562498 0.210532 -1.425694
v -0.562498 0.160412 -1.388354
v -1.312496 0.160412 -1.388354
v -1.312495 0.197751 -1.338234
v -1.312495 0.247871 -1.375574
v -0.562498 0.247871 -1.375574
v 1.999993 0.546588 -0.974617
v 1.749994 0.546588 -0.974617
v 1.749994 0.496469 -0.937277
v 1.999993 0.496469 -0.937277
v 2.187492 0.384450 -1.087636
v 1.749994 0.384450 -1.087636
v 1.749994 0.434569 -1.124976
v 2.187493 0.434569 -1.124976
v 2.187492 0.471909 -1.074857
v 2.187492 0.421789 -1.037517
v 2.125055 0.499756 -0.874997
v 2.125055 0.499756 0.874997
v 2.150025 0.557052 0.874997
v 2.150025 0.557052 -0.874997
v 2.551088 0.382255 -1.062497
v 2.493794 0.407226 -1.062496
v 2.493794 0.407227 1.062496
v 2.551088 0.382256 1.062497
v 2.468823 0.349931 1.062497
v 2.526117 0.324960 1.062496
v 2.526117 0.324960 -1.062496
v 2.468823 0.349931 -1.062496
v 2.591953 0.299834 0.624998
v 2.591953 0.299834 1.187496
v 2.616923 0.357130 1.187496
v 2.616923 0.357130 0.624998
v 2.935721 0.150008 1.312495
v 2.960692 0.207304 1.312495
v 2.960692 0.207304 0.624998
v 2.935721 0.150008 0.624998
v 2.960692 0.207304 0.499998
v 2.935721 0.150008 0.499999
v 2.935721 0.150008 0.125000
v 2.960692 0.207304 0.125000
v 2.616923 0.357130 0.499998
v 2.616923 0.357130 0.125000
v 2.591954 0.299834 0.499998
v 2.591953 0.299834 0.125000
v 2.960692 0.207304 0.062500
v 2.935721 0.150008 0.062500
v 2.935722 0.150008 -1.062496
v 2.960692 0.207304 -1.062496
v 2.616923 0.357130 -0.124999
v 2.616923 0.357129 -1.187496
v 2.591953 0.299834 -0.124999
v 2.591953 0.299833 -1.187495
v 0.125000 0.313065 0.499332
v 0.124999 0.313065 0.749331
v 0.124999 1.813066 0.749331
v 0.125000 1.813066 0.499332
v 0.374999 0.313065 0.749331
v 0.374999 1.813066 0.749331
v 0.374999 0.313065 0.499332
v 0.374999 1.813066 0.499332
v 0.125000 1.813066 -0.624995
v 0.125000 0.313065 -0.624995
v 0.125000 0.313065 -0.374996
v 0.125000 1.813066 -0.374996
v 0.374999 1.813066 -0.624995
v 0.374999 0.313065 -0.624995
v 0.374999 1.813066 -0.374996
v 0.374999 0.313065 -0.374996
v 0.060823 1.468054 -1.187495
v 0.060823 1.468054 1.312495
v 0.060823 1.718054 1.312495
v 0.060823 1.718054 -1.187495
v 0.123323 1.468054 1.312494
v 0.123323 1.718054 1.312494
v 0.123323 1.468054 -1.187495
v 0.123323 1.718054 -1.187495
v 1.478294 0.698593 0.374716
v 1.478294 0.698593 0.499716
v 0.097086 1.283460 0.499716
v 0.097086 1.283460 0.374716
v 1.575769 0.928795 0.499716
v 0.194564 1.513663 0.499716
v 1.575769 0.928795 0.374716
v 0.194564 1.513663 0.374716
v 0.097086 1.283460 -0.375380
v 1.478293 0.698593 -0.375380
v 1.478293 0.698593 -0.250381
v 0.097086 1.283460 -0.250381
v 0.194564 1.513663 -0.375380
v 1.575769 0.928795 -0.375381
v 0.194564 1.513663 -0.250381
v 1.575768 0.928795 -0.250381
v -0.000618 1.599277 0.680337
v -0.000618 1.599277 1.117835
v -0.000618 2.036777 1.117835
v -0.000618 2.036777 0.680337
v 0.061881 1.599277 1.117835
v 0.061881 2.036777 1.117835
v 0.061882 1.599277 0.680337
v 0.061882 2.036777 0.680337
vt 0.804688 0.882812
vt 0.804688 0.851563
vt 0.992188 0.851563
vt 0.992188 0.882812
vt 0.804688 0.882812
vt 0.992188 0.882812
vt 0.804688 0.851563
vt 0.804688 0.882812
vt 0.992188 0.882812
vt 0.992188 0.851563
vt 0.804688 0.851562
vt 0.992188 0.851562
vt 0.960938 0.851562
vt 0.960938 0.882812
vt 0.992188 0.851563
vt 0.804688 0.851563
vt 0.804688 0.882812
vt 0.992188 0.882812
vt 0.992188 0.882812
vt 0.804688 0.882812
vt 0.992188 0.882812
vt 0.804688 0.882812
vt 0.804688 0.851563
vt 0.992188 0.851563
vt 0.992188 0.851562
vt 0.804688 0.851562
vt 0.960938 0.851562
vt 0.960938 0.882812
vt 0.679688 0.820312
vt 0.992188 0.820312
vt 0.992188 0.851562
vt 0.679688 0.851562
vt 0.921875 0.882812
vt 0.921875 0.875000
vt 0.953125 0.875000
vt 0.953125 0.882812
vt 0.992188 0.851562
vt 0.679688 0.851562
vt 0.679688 0.882812
vt 0.992188 0.882812
vt 0.921875 0.875000
vt 0.921875 0.882812
vt 0.953125 0.882812
vt 0.953125 0.875000
vt 0.679688 0.875000
vt 0.992188 0.875000
vt 0.679688 0.882813
vt 0.992188 0.882812
vt 0.992188 0.875000
vt 0.679688 0.875000
vt 0.804688 0.867188
vt 0.804688 0.882813
vt 0.992188 0.882812
vt 0.992188 0.867188
vt 0.804688 0.851562
vt 0.992188 0.851562
vt 0.804688 0.882813
vt 0.804688 0.867188
vt 0.992188 0.867188
vt 0.992188 0.882813
vt 0.804688 0.851562
vt 0.804688 0.882812
vt 0.992188 0.882812
vt 0.992188 0.851562
vt 0.960938 0.882813
vt 0.960937 0.867187
vt 0.992188 0.867187
vt 0.992188 0.882812
vt 0.992188 0.882812
vt 0.804688 0.882813
vt 0.804688 0.867188
vt 0.992188 0.867188
vt 0.992188 0.851562
vt 0.804688 0.851562
vt 0.992188 0.867188
vt 0.804688 0.867188
vt 0.804688 0.882813
vt 0.992188 0.882813
vt 0.992188 0.882812
vt 0.804688 0.882812
vt 0.804688 0.851562
vt 0.992188 0.851562
vt 0.992188 0.867187
vt 0.960937 0.867187
vt 0.960938 0.882813
vt 0.992188 0.882812
vt 0.882813 0.718750
vt 0.937500 0.718750
vt 0.937500 0.773437
vt 0.882813 0.773437
vt 0.960938 0.718750
vt 0.953125 0.718750
vt 0.953125 0.773437
vt 0.960938 0.773437
vt 0.875000 0.718750
vt 0.820313 0.718750
vt 0.820313 0.773437
vt 0.875000 0.773437
vt 0.953125 0.718750
vt 0.960938 0.718750
vt 0.960938 0.773437
vt 0.953125 0.773437
vt 0.968750 0.718750
vt 0.968750 0.773437
vt 0.960938 0.773437
vt 0.960938 0.718750
vt 0.960938 0.718750
vt 0.960938 0.773437
vt 0.968750 0.773437
vt 0.968750 0.718750
vt 0.007812 0.406250
vt 0.632812 0.406250
vt 0.632812 0.421875
vt 0.007812 0.421875
vt 0.992188 0.406250
vt 0.992188 0.421875
vt 0.007812 0.859375
vt 0.632812 0.859375
vt 0.632812 0.875000
vt 0.007812 0.875000
vt 0.992188 0.859375
vt 0.992188 0.875000
vt 0.007812 0.500000
vt 0.632812 0.500000
vt 0.523438 0.953125
vt 0.242188 0.953125
vt 0.929688 0.664062
vt 0.695312 0.664062
vt 0.398438 0.500000
vt 0.117188 0.500000
vt 0.929688 0.992188
vt 0.695312 0.992188
vt 0.007812 0.398438
vt 0.007812 0.117188
vt 0.085938 0.117188
vt 0.085938 0.398438
vt 0.335938 0.125000
vt 0.101562 0.125000
vt 0.101562 0.046875
vt 0.335938 0.046875
vt 0.617188 0.125000
vt 0.617188 0.046875
vt 0.851562 0.125000
vt 0.851562 0.046875
vt 0.101562 0.132812
vt 0.101562 0.382812
vt 0.117188 0.031250
vt 0.320312 0.031250
vt 0.351562 0.031250
vt 0.601562 0.031250
vt 0.632812 0.031250
vt 0.835938 0.031250
vt 0.125000 0.132812
vt 0.125000 0.382812
vt 0.117188 0.007812
vt 0.320312 0.007812
vt 0.351562 0.007812
vt 0.601562 0.007812
vt 0.632812 0.007812
vt 0.835938 0.007812
vt 0.328125 0.132812
vt 0.328125 0.382812
vt 0.343750 0.281250
vt 0.343750 0.140625
vt 0.421875 0.140625
vt 0.421875 0.281250
vt 0.421875 0.132812
vt 0.343750 0.132812
vt 0.343750 0.289062
vt 0.421875 0.289062
vt 0.429688 0.140625
vt 0.429688 0.281250
vt 0.335938 0.140625
vt 0.335938 0.281250
vt 0.421875 0.304688
vt 0.421875 0.296875
vt 0.484375 0.296875
vt 0.484375 0.304688
vt 0.421875 0.382812
vt 0.484375 0.382812
vt 0.421875 0.390625
vt 0.484375 0.390625
vt 0.492188 0.382812
vt 0.492188 0.304688
vt 0.414062 0.382812
vt 0.414062 0.304688
vt 0.437500 0.140625
vt 0.437500 0.132812
vt 0.500000 0.132812
vt 0.500000 0.140625
vt 0.437500 0.218750
vt 0.500000 0.218750
vt 0.437500 0.226562
vt 0.500000 0.226562
vt 0.507812 0.218750
vt 0.507812 0.140625
vt 0.429688 0.218750
vt 0.429688 0.140625
vt 0.343750 0.304688
vt 0.343750 0.296875
vt 0.406250 0.296875
vt 0.406250 0.304688
vt 0.343750 0.382812
vt 0.406250 0.382812
vt 0.343750 0.390625
vt 0.406250 0.390625
vt 0.414062 0.382812
vt 0.414062 0.304688
vt 0.335938 0.382812
vt 0.335938 0.304688
vt 0.640625 0.382812
vt 0.640625 0.312500
vt 0.648438 0.312500
vt 0.648438 0.382812
vt 0.718750 0.390625
vt 0.648438 0.390625
vt 0.718750 0.382812
vt 0.726562 0.312500
vt 0.726562 0.382812
vt 0.718750 0.312500
vt 0.648438 0.304688
vt 0.718750 0.304688
vt 0.820312 0.382812
vt 0.820312 0.390625
vt 0.734375 0.390625
vt 0.734375 0.382812
vt 0.820312 0.343750
vt 0.734375 0.343750
vt 0.820312 0.335938
vt 0.734375 0.335938
vt 0.726562 0.343750
vt 0.726562 0.382812
vt 0.828125 0.343750
vt 0.828125 0.382812
vt 0.835938 0.328125
vt 0.835938 0.320312
vt 0.882812 0.320312
vt 0.882812 0.328125
vt 0.835938 0.382812
vt 0.882812 0.382812
vt 0.835938 0.390625
vt 0.882812 0.390625
vt 0.890625 0.328125
vt 0.890625 0.382812
vt 0.898438 0.351562
vt 0.898438 0.343750
vt 0.953125 0.343750
vt 0.953125 0.351562
vt 0.898438 0.390625
vt 0.898438 0.382812
vt 0.984375 0.382812
vt 0.984375 0.390625
vt 0.992188 0.390625
vt 0.992188 0.382812
vt 0.898438 0.375000
vt 0.984375 0.375000
vt 0.992188 0.343750
vt 0.992188 0.351562
vt 0.890625 0.382812
vt 0.890625 0.351562
vt 0.835938 0.382812
vt 0.828125 0.382812
vt 0.828125 0.328125
vt 0.835938 0.328125
vt 0.500000 0.304688
vt 0.500000 0.296875
vt 0.531250 0.296875
vt 0.531250 0.304688
vt 0.500000 0.273438
vt 0.500000 0.265625
vt 0.554688 0.265625
vt 0.554688 0.273438
vt 0.562500 0.273438
vt 0.562500 0.265625
vt 0.554688 0.304688
vt 0.554688 0.296875
vt 0.492188 0.296875
vt 0.492188 0.273438
vt 0.554688 0.281250
vt 0.875000 0.843750
vt 0.875000 0.851562
vt 0.796875 0.851562
vt 0.796875 0.843750
vt 0.789062 0.843750
vt 0.789062 0.773438
vt 0.796875 0.773438
vt 0.796875 0.765625
vt 0.875000 0.765625
vt 0.875000 0.773438
vt 0.882812 0.773438
vt 0.882812 0.843750
vt 0.882812 0.843750
vt 0.882812 0.757812
vt 0.890625 0.757812
vt 0.890625 0.843750
vt 0.929688 0.757812
vt 0.929688 0.843750
vt 0.937500 0.757812
vt 0.937500 0.843750
vt 0.929688 0.851562
vt 0.890625 0.851562
vt 0.929688 0.750000
vt 0.890625 0.750000
vt 0.710938 0.710938
vt 0.710938 0.757812
vt 0.703125 0.757812
vt 0.703125 0.710938
vt 0.648438 0.757812
vt 0.648438 0.710938
vt 0.640625 0.757812
vt 0.640625 0.710938
vt 0.703125 0.703125
vt 0.648438 0.703125
vt 0.781250 0.765625
vt 0.718750 0.765625
vt 0.718750 0.757812
vt 0.781250 0.757812
vt 0.812500 0.726562
vt 0.718750 0.726562
vt 0.718750 0.718750
vt 0.812500 0.718750
vt 0.820312 0.718750
vt 0.820312 0.726562
vt 0.812500 0.734375
vt 0.718750 0.734375
vt 0.820312 0.757812
vt 0.820312 0.765625
vt 0.710938 0.726562
vt 0.710938 0.757812
vt 0.703125 0.765625
vt 0.648438 0.765625
vt 0.648438 0.757812
vt 0.703125 0.757812
vt 0.742188 0.710938
vt 0.773438 0.710938
vt 0.773438 0.718750
vt 0.742188 0.718750
vt 0.718750 0.679688
vt 0.773438 0.679688
vt 0.773438 0.687500
vt 0.718750 0.687500
vt 0.710938 0.687500
vt 0.710938 0.679688
vt 0.718750 0.718750
vt 0.718750 0.710938
vt 0.781250 0.710938
vt 0.781250 0.687500
vt 0.718750 0.695312
vt 0.757812 0.203125
vt 0.539062 0.203125
vt 0.539062 0.195312
vt 0.757812 0.195312
vt 0.781250 0.140625
vt 0.781250 0.148438
vt 0.515625 0.148438
vt 0.515625 0.140625
vt 0.507812 0.148438
vt 0.507812 0.140625
vt 0.789062 0.140625
vt 0.789062 0.148438
vt 0.515625 0.195312
vt 0.507812 0.195312
vt 0.781250 0.132812
vt 0.515625 0.132812
vt 0.789062 0.195312
vt 0.781250 0.195312
vt 0.695312 0.203125
vt 0.765625 0.203125
vt 0.765625 0.210938
vt 0.695312 0.210938
vt 0.812500 0.203125
vt 0.812500 0.210938
vt 0.781250 0.257812
vt 0.695312 0.257812
vt 0.687500 0.210938
vt 0.687500 0.257812
vt 0.695312 0.265625
vt 0.781250 0.265625
vt 0.843750 0.140625
vt 0.851562 0.140625
vt 0.851562 0.187500
vt 0.843750 0.187500
vt 0.796875 0.140625
vt 0.796875 0.187500
vt 0.789062 0.140625
vt 0.789062 0.187500
vt 0.796875 0.195312
vt 0.843750 0.195312
vt 0.796875 0.132812
vt 0.843750 0.132812
vt 0.507812 0.210938
vt 0.507812 0.203125
vt 0.648438 0.203125
vt 0.648438 0.210938
vt 0.531250 0.257812
vt 0.664062 0.257812
vt 0.531250 0.265625
vt 0.664062 0.265625
vt 0.695312 0.203125
vt 0.695312 0.210938
vt 0.484375 0.257812
vt 0.484375 0.265625
vn -1.0000 0.0000 -0.0000
vn 0.0000 -0.0000 1.0000
vn 1.0000 0.0000 0.0000
vn 0.0000 0.0000 -1.0000
vn 0.0000 1.0000 0.0000
vn -0.0000 -1.0000 -0.0000
vn -0.3899 -0.9208 0.0000
vn 0.3899 0.9208 0.0000
vn -0.9208 0.3899 0.0000
vn 0.0000 0.8000 0.6000
vn -0.1961 0.9806 0.0000
vn 0.0000 0.8000 -0.6000
vn 0.3939 0.9191 0.0000
vn -0.2002 0.9797 -0.0000
vn 0.9797 0.2002 0.0000
vn -0.9797 -0.2002 0.0000
vn -0.8564 -0.1719 -0.4868
vn -0.1959 0.9806 -0.0017
vn 0.8564 0.1719 0.4868
vn -0.4776 -0.0939 0.8735
vn 0.4776 0.0939 -0.8735
vn 0.0000 0.5974 -0.8019
vn -0.0000 -0.5974 0.8019
vn -0.0000 0.8019 0.5974
vn -0.6000 0.4780 -0.6415
vn 0.5547 0.4971 -0.6672
vn 0.0000 0.5974 0.8019
vn 0.0000 -0.5974 -0.8019
vn 0.0000 0.8019 -0.5974
vn -0.6000 0.4779 0.6415
vn 0.5547 0.4971 0.6672
vn -0.9167 0.3995 0.0000
vn 0.3995 0.9167 -0.0000
vn -0.4100 0.1787 0.8944
vn 0.9167 -0.3995 0.0000
vn -0.4100 0.1787 -0.8944
vn -0.2899 0.1263 0.9487
vn 0.2899 -0.1263 -0.9487
usemtl mat1
s off
f 183/1/1 184/2/1 185/3/1 186/4/1
f 184/2/2 187/5/2 188/6/2 185/3/2
f 187/7/3 189/8/3 190/9/3 188/10/3
f 189/8/4 183/11/4 186/12/4 190/9/4
f 186/13/5 185/3/5 188/6/5 190/14/5
f 191/15/1 192/16/1 193/17/1 194/18/1
f 195/19/4 196/20/4 192/16/4 191/15/4
f 197/21/3 198/22/3 196/23/3 195/24/3
f 194/25/2 193/26/2 198/22/2 197/21/2
f 195/19/5 191/15/5 194/27/5 197/28/5
f 199/29/1 200/30/1 201/31/1 202/32/1
f 200/33/2 203/34/2 204/35/2 201/36/2
f 203/37/3 205/38/3 206/39/3 204/40/3
f 205/41/4 199/42/4 202/43/4 206/44/4
f 202/45/5 201/46/5 204/40/5 206/39/5
f 205/47/6 203/48/6 200/49/6 199/50/6
f 207/51/7 208/52/7 209/53/7 210/54/7
f 208/52/2 211/55/2 212/56/2 209/53/2
f 211/57/8 213/58/8 214/59/8 212/60/8
f 213/61/4 207/62/4 210/63/4 214/64/4
f 210/65/9 209/66/9 212/67/9 214/68/9
f 215/69/7 216/70/7 217/71/7 218/72/7
f 219/73/4 220/74/4 216/70/4 215/69/4
f 221/75/8 222/76/8 220/77/8 219/78/8
f 218/79/2 217/80/2 222/81/2 221/82/2
f 219/83/9 215/84/9 218/85/9 221/86/9
f 223/87/1 224/88/1 225/89/1 226/90/1
f 224/91/2 227/92/2 228/93/2 225/94/2
f 227/95/3 229/96/3 230/97/3 228/98/3
f 229/99/4 223/100/4 226/101/4 230/102/4
f 226/103/5 225/104/5 228/105/5 230/106/5
f 229/107/6 227/108/6 224/109/6 223/110/6
usemtl mat2
f 1/111/4 2/112/4 3/113/4 4/114/4
f 2/112/1 5/115/1 6/116/1 3/113/1
f 5/117/2 7/118/2 8/119/2 6/120/2
f 7/118/3 1/121/3 4/122/3 8/119/3
f 7/118/6 5/117/6 2/123/6 1/124/6
f 6/120/10 8/119/10 9/125/10 10/126/10
f 3/113/11 6/116/11 10/127/11 11/128/11
f 4/114/12 3/113/12 11/129/12 12/130/12
f 8/119/13 4/122/13 12/131/13 9/132/13
f 10/133/2 9/134/2 13/135/2 14/136/2
f 11/137/1 10/138/1 14/139/1 15/140/1
f 12/141/4 11/137/4 15/140/4 16/142/4
f 9/143/3 12/141/3 16/142/3 13/144/3
f 14/136/5 13/135/5 17/145/5 18/146/5
f 15/140/5 14/139/5 18/147/5 19/148/5
f 16/142/5 15/140/5 19/149/5 20/150/5
f 13/144/5 16/142/5 20/151/5 17/152/5
f 18/146/4 17/145/4 21/153/4 22/154/4
f 19/148/3 18/147/3 22/155/3 23/156/3
f 20/150/2 19/149/2 23/157/2 24/158/2
f 17/152/1 20/151/1 24/159/1 21/160/1
f 24/161/5 23/162/5 22/154/5 21/153/5
f 25/163/14 26/164/14 27/165/14 28/166/14
f 29/167/2 27/165/2 26/164/2 30/168/2
f 31/169/4 25/163/4 28/166/4 32/170/4
f 28/166/15 27/165/15 29/171/15 32/172/15
f 30/173/16 26/164/16 25/163/16 31/174/16
f 33/175/16 34/176/16 35/177/16 36/178/16
f 37/179/14 33/175/14 36/178/14 38/180/14
f 39/181/15 37/179/15 38/180/15 40/182/15
f 40/183/2 38/180/2 36/178/2 35/184/2
f 33/175/4 37/179/4 39/185/4 34/186/4
f 41/187/17 42/188/17 43/189/17 44/190/17
f 45/191/18 41/187/18 44/190/18 46/192/18
f 47/193/19 45/191/19 46/192/19 48/194/19
f 48/195/20 46/192/20 44/190/20 43/196/20
f 41/187/21 45/191/21 47/197/21 42/198/21
f 49/199/16 50/200/16 51/201/16 52/202/16
f 53/203/14 49/199/14 52/202/14 54/204/14
f 55/205/15 53/203/15 54/204/15 56/206/15
f 56/207/2 54/204/2 52/202/2 51/208/2
f 49/199/4 53/203/4 55/209/4 50/210/4
f 57/211/22 58/212/22 59/213/22 60/214/22
f 61/215/3 57/216/3 60/214/3 62/217/3
f 63/218/23 61/219/23 62/217/23 64/220/23
f 58/221/1 63/222/1 64/220/1 59/213/1
f 64/220/24 62/217/24 60/214/24 59/213/24
f 65/223/23 66/224/23 67/225/23 68/226/23
f 69/227/24 65/223/24 68/226/24 70/228/24
f 71/229/22 69/227/22 70/228/22 72/230/22
f 72/231/3 70/228/3 68/226/3 67/232/3
f 65/223/1 69/227/1 71/233/1 66/234/1
f 73/235/22 74/236/22 75/237/22 76/238/22
f 77/239/24 73/235/24 76/238/24 78/240/24
f 79/241/23 77/239/23 78/240/23 80/242/23
f 78/240/1 76/238/1 75/243/1 80/244/1
f 81/245/22 82/246/22 83/247/22 84/248/22
f 85/249/23 86/250/23 87/251/23 88/252/23
f 89/253/1 88/252/1 87/251/1 90/254/1
f 86/250/24 91/255/24 90/256/24 87/251/24
f 89/257/25 90/258/25 84/248/25 83/247/25
f 90/256/24 91/255/24 81/245/24 84/248/24
f 85/259/3 91/255/3 86/250/3
f 82/260/3 81/245/3 91/255/3 85/259/3
f 74/261/3 73/262/3 77/263/3 79/264/3
f 92/265/22 93/266/22 94/267/22 95/268/22
f 96/269/23 97/270/23 98/271/23 99/272/23
f 100/273/3 99/272/3 98/271/3 101/274/3
f 101/275/26 95/268/26 94/267/26 100/276/26
f 96/269/1 93/266/1 92/277/1 97/278/1
f 100/279/24 94/267/24 93/266/24
f 93/266/24 96/269/24 99/272/24 100/279/24
f 102/280/27 103/281/27 104/282/27 105/283/27
f 105/283/3 104/284/3 106/285/3 107/286/3
f 107/286/28 106/287/28 108/288/28 109/289/28
f 109/289/1 108/290/1 103/291/1 102/280/1
f 105/283/29 107/286/29 109/289/29 102/280/29
f 110/292/28 111/293/28 112/294/28 113/295/28
f 113/295/29 112/294/29 114/296/29 115/297/29
f 115/297/27 114/296/27 116/298/27 117/299/27
f 113/295/3 115/297/3 117/300/3 110/301/3
f 116/302/1 114/296/1 112/294/1 111/303/1
f 118/304/27 119/305/27 120/306/27 121/307/27
f 121/307/29 120/306/29 122/308/29 123/309/29
f 123/309/28 122/308/28 124/310/28 125/311/28
f 118/312/1 121/307/1 123/309/1 125/313/1
f 126/314/27 127/315/27 128/316/27 129/317/27
f 130/318/28 131/319/28 132/320/28 133/321/28
f 130/318/1 133/321/1 134/322/1 135/323/1
f 135/324/29 136/325/29 131/319/29 130/318/29
f 129/317/30 135/326/30 134/327/30 126/314/30
f 128/316/29 136/325/29 135/324/29 129/317/29
f 136/325/3 132/328/3 131/319/3
f 136/325/3 128/316/3 127/329/3 132/328/3
f 122/330/3 120/331/3 119/332/3 124/333/3
f 137/334/27 138/335/27 139/336/27 140/337/27
f 141/338/28 142/339/28 143/340/28 144/341/28
f 141/338/3 144/341/3 145/342/3 146/343/3
f 137/334/31 140/337/31 146/344/31 145/345/31
f 139/346/1 138/335/1 143/340/1 142/347/1
f 137/334/29 145/348/29 138/335/29
f 144/341/29 143/340/29 138/335/29 145/348/29
f 147/349/32 148/350/32 149/351/32 150/352/32
f 151/353/33 152/354/33 153/355/33 154/356/33
f 155/357/2 156/358/2 154/356/2 153/355/2
f 157/359/4 158/360/4 152/354/4 151/353/4
f 155/357/34 153/355/34 149/361/34 148/362/34
f 149/351/33 153/355/33 152/354/33 150/352/33
f 157/363/35 151/353/35 154/356/35 156/364/35
f 147/365/36 150/366/36 152/354/36 158/360/36
f 159/367/32 160/368/32 161/369/32 162/370/32
f 163/371/37 164/372/37 161/369/37 160/368/37
f 161/369/33 164/373/33 165/374/33 162/370/33
f 159/375/4 162/370/4 165/374/4 166/376/4
f 166/377/35 165/374/35 164/373/35 163/378/35
f 167/379/35 168/380/35 169/381/35 170/382/35
f 171/383/33 167/379/33 170/382/33 172/384/33
f 173/385/32 171/383/32 172/384/32 174/386/32
f 174/387/4 172/384/4 170/382/4 169/388/4
f 167/379/2 171/383/2 173/389/2 168/390/2
f 175/391/35 176/392/35 177/393/35 178/394/35
f 179/395/33 175/391/33 178/394/33 180/396/33
f 181/397/32 179/395/32 180/396/32 182/398/32
f 182/399/38 180/400/38 178/394/38 177/393/38
f 175/401/34 179/395/34 181/397/34 176/402/34
o RAIL_RIGTH_deadend
v 1.687494 0.496469 0.937277
v 0.624998 0.496469 0.937277
v 0.624998 0.546589 0.974617
v 1.687495 0.546589 0.974617
v 1.687494 0.160412 1.388354
v 1.687494 0.210532 1.425694
v 0.624998 0.160412 1.388354
v 0.624998 0.210532 1.425694
vt 0.500000 0.304688
vt 0.632812 0.304688
vt 0.632812 0.312500
vt 0.500000 0.312500
vt 0.492188 0.382812
vt 0.492188 0.312500
vt 0.500000 0.382812
vt 0.632812 0.390625
vt 0.500000 0.390625
vt 0.632812 0.382812
vt 0.640625 0.312500
vt 0.640625 0.382812
vn 0.0000 0.5974 -0.8019
vn 1.0000 -0.0000 -0.0000
vn 0.0000 -0.5974 0.8019
vn -1.0000 0.0000 0.0000
vn 0.0000 0.8019 0.5974
usemtl mat2
s off
f 231/403/39 232/404/39 233/405/39 234/406/39
f 235/407/40 231/408/40 234/406/40 236/409/40
f 237/410/41 235/411/41 236/409/41 238/412/41
f 232/413/42 237/414/42 238/412/42 233/405/42
f 238/412/43 236/409/43 234/406/43 233/405/43
o RAIL_LEFT_deadend
v 0.624998 0.546588 -0.974617
v 0.624998 0.496469 -0.937277
v 1.687494 0.496469 -0.937277
v 1.687494 0.546588 -0.974617
v 1.687494 0.160412 -1.388354
v 1.687494 0.210532 -1.425693
v 0.624998 0.160412 -1.388354
v 0.624998 0.210532 -1.425694
vt 0.781250 0.843750
vt 0.781250 0.851562
vt 0.648438 0.851562
vt 0.648438 0.843750
vt 0.640625 0.843750
vt 0.640625 0.773438
vt 0.648438 0.773438
vt 0.648438 0.765625
vt 0.781250 0.765625
vt 0.781250 0.773438
vt 0.789062 0.773438
vt 0.789062 0.843750
vn 0.0000 0.5974 0.8019
vn 1.0000 -0.0000 0.0000
vn 0.0000 -0.5974 -0.8019
vn -1.0000 0.0000 0.0000
vn 0.0000 0.8019 -0.5974
usemtl mat2
s off
f 239/415/44 240/416/44 241/417/44 242/418/44
f 242/418/45 241/419/45 243/420/45 244/421/45
f 244/421/46 243/422/46 245/423/46 246/424/46
f 246/424/47 245/425/47 240/426/47 239/415/47
f 242/418/48 244/421/48 246/424/48 239/415/48
