# Blender v2.79 (sub 0) OBJ File: ''
# www.blender.org
mtllib mvp_ir_rail.mtl
o RAIL_LEFT_mvpRail
v 0.500000 0.218750 0.906249
v 0.500000 0.218750 0.718749
v -0.500000 0.218750 0.718749
v -0.500000 0.218750 0.906249
v 0.500000 0.156250 0.718749
v -0.500000 0.156250 0.718749
v 0.500000 0.156250 0.906249
v -0.500000 0.343750 0.781249
v 0.500000 0.343750 0.781249
v 0.500000 0.218750 0.781249
v -0.500000 0.218750 0.781249
v 0.500000 0.343750 0.843749
v 0.500000 0.218750 0.843749
v 0.500000 0.343750 0.874999
v 0.500000 0.343750 0.749999
v 0.500000 0.406250 0.749999
v 0.500000 0.406250 0.874999
v -0.500000 0.343750 0.749999
v -0.500000 0.406250 0.749999
v -0.500000 0.406250 0.874999
v -0.500000 0.343750 0.874999
v -0.500000 0.218750 0.843749
v -0.500000 0.343750 0.843749
v -0.500000 0.156250 0.906249
vt 0.171880 0.804690
vt 0.171880 0.828130
vt 0.046880 0.828130
vt 0.046880 0.804690
vt 0.468750 0.726560
vt 0.593750 0.726560
vt 0.593750 0.718750
vt 0.468750 0.718750
vt 0.171880 0.679690
vt 0.171880 0.687500
vt 0.195310 0.687500
vt 0.195310 0.679690
vt 0.484380 0.867190
vt 0.609380 0.867190
vt 0.609380 0.882810
vt 0.484380 0.882810
vt 0.179690 0.687500
vt 0.179690 0.703130
vt 0.187500 0.703130
vt 0.187500 0.687500
vt 0.187500 0.703130
vt 0.171880 0.703130
vt 0.171880 0.710940
vt 0.187500 0.710940
vt 0.414060 0.750000
vt 0.414060 0.742190
vt 0.289060 0.742190
vt 0.289060 0.750000
vt 0.289060 0.765630
vt 0.289060 0.750000
vt 0.414060 0.750000
vt 0.414060 0.765630
vt 0.187500 0.710940
vt 0.171880 0.710940
vt 0.171880 0.703130
vt 0.187500 0.703130
vt 0.179690 0.703130
vt 0.179690 0.687500
vt 0.187500 0.687500
vt 0.187500 0.703130
vt 0.171880 0.687500
vt 0.171880 0.679690
vt 0.195310 0.679690
vt 0.195310 0.687500
vt 0.593750 0.750000
vt 0.468750 0.750000
vt 0.468750 0.742190
vt 0.593750 0.742190
vt 0.468750 0.742190
vt 0.468750 0.726560
vt 0.593750 0.726560
vt 0.593750 0.742190
vt 0.593750 0.726560
vt 0.468750 0.726560
vt 0.468750 0.718750
vt 0.593750 0.718750
vt 0.296880 0.804690
vt 0.171880 0.804690
vt 0.171880 0.820310
vt 0.296880 0.820310
vt 0.171880 0.828130
vt 0.296880 0.828130
vt 0.296880 0.804690
vt 0.171880 0.804690
vn 0.0000 1.0000 0.0000
vn 0.0000 0.0000 -1.0000
vn 1.0000 0.0000 0.0000
vn -1.0000 0.0000 0.0000
vn 0.0000 0.0000 1.0000
vn 0.0000 -1.0000 -0.0000
usemtl mat1
s 1
f 1/1/1 2/2/1 3/3/1
f 3/3/1 4/4/1 1/1/1
f 3/5/2 2/6/2 5/7/2
f 5/7/2 6/8/2 3/5/2
f 5/9/3 2/10/3 1/11/3
f 1/11/3 7/12/3 5/9/3
f 8/13/2 9/14/2 10/15/2
f 10/15/2 11/16/2 8/13/2
f 10/17/3 9/18/3 12/19/3
f 12/19/3 13/20/3 10/17/3
f 14/21/3 15/22/3 16/23/3
f 16/23/3 17/24/3 14/21/3
f 16/25/2 15/26/2 18/27/2
f 18/27/2 19/28/2 16/25/2
f 19/29/1 20/30/1 17/31/1
f 17/31/1 16/32/1 19/29/1
f 20/33/4 19/34/4 18/35/4
f 18/35/4 21/36/4 20/33/4
f 8/37/4 11/38/4 22/39/4
f 22/39/4 23/40/4 8/37/4
f 3/41/4 6/42/4 24/43/4
f 24/43/4 4/44/4 3/41/4
f 17/45/5 20/46/5 21/47/5
f 21/47/5 14/48/5 17/45/5
f 23/49/5 22/50/5 13/51/5
f 13/51/5 12/52/5 23/49/5
f 1/53/5 4/54/5 24/55/5
f 24/55/5 7/56/5 1/53/5
f 14/57/6 21/58/6 18/59/6
f 18/59/6 15/60/6 14/57/6
f 6/61/6 5/62/6 7/63/6
f 7/63/6 24/64/6 6/61/6
o RAIL_BASE_mvpRail
v 0.156250 0.000000 -1.312499
v -0.156250 0.000000 -1.312499
v -0.156250 0.187500 -1.312499
v 0.156250 0.187500 -1.312499
v -0.156250 -0.000000 1.312499
v -0.156250 0.187500 1.312499
v 0.156250 -0.000000 1.312499
v 0.156250 0.187500 1.312499
v 0.093750 0.191052 0.982740
v 0.093750 0.222621 0.920240
v -0.093750 0.222621 0.920240
v -0.093750 0.191052 0.982740
v 0.093750 0.222621 0.857740
v -0.093750 0.222621 0.857740
v 0.093750 0.222621 0.773689
v 0.093750 0.222621 0.711189
v -0.093750 0.222621 0.711189
v -0.093750 0.222621 0.773689
v 0.093750 0.191052 0.648689
v -0.093750 0.191052 0.648689
v -0.093750 0.191052 -0.648689
v 0.093750 0.191052 -0.648689
v 0.093750 0.222621 -0.711189
v -0.093750 0.222621 -0.711189
v 0.093750 0.222621 -0.773689
v -0.093750 0.222621 -0.773689
v -0.093750 0.222621 -0.857740
v 0.093750 0.222621 -0.857740
v 0.093749 0.222621 -0.920240
v -0.093750 0.222621 -0.920240
v 0.093750 0.191052 -0.982740
v -0.093750 0.191052 -0.982740
vt 0.195310 0.031250
vt 0.242190 0.031250
vt 0.242190 0.054690
vt 0.195310 0.054690
vt 0.085940 0.054690
vt 0.085940 0.031250
vt 0.414060 0.031250
vt 0.414060 0.054690
vt 0.414060 0.039060
vt 0.414060 0.007810
vt 0.085940 0.007810
vt 0.085940 0.039060
vt 0.242190 0.054690
vt 0.242190 0.031250
vt 0.195310 0.031250
vt 0.195310 0.054690
vt 0.414060 0.054690
vt 0.414060 0.031250
vt 0.085940 0.031250
vt 0.085940 0.054690
vt 0.351560 0.921870
vt 0.351560 0.953120
vt 0.023440 0.953130
vt 0.023440 0.921880
vt 0.875000 0.265630
vt 0.875000 0.273440
vt 0.898440 0.273440
vt 0.898440 0.265630
vt 0.875000 0.281250
vt 0.898440 0.281250
vt 0.898440 0.281250
vt 0.898440 0.273440
vt 0.875000 0.273440
vt 0.875000 0.281250
vt 0.898440 0.265630
vt 0.875000 0.265630
vt 0.875000 0.265630
vt 0.898440 0.265630
vt 0.898440 0.273440
vt 0.875000 0.273440
vt 0.898440 0.281250
vt 0.875000 0.281250
vt 0.898440 0.281250
vt 0.875000 0.281250
vt 0.875000 0.273440
vt 0.898440 0.273440
vt 0.875000 0.265630
vt 0.898440 0.265630
vn 0.0000 0.0000 -1.0000
vn -1.0000 0.0000 0.0000
vn 0.0000 -1.0000 -0.0000
vn 0.0000 0.0000 1.0000
vn 1.0000 0.0000 0.0000
vn 0.0000 1.0000 0.0000
vn 0.0000 0.8926 0.4509
vn 0.0000 0.9728 0.2317
vn 0.0000 0.9728 -0.2317
vn 0.0000 0.8926 -0.4509
usemtl mat1
s 1
f 25/65/7 26/66/7 27/67/7
f 27/67/7 28/68/7 25/65/7
f 27/69/8 26/70/8 29/71/8
f 29/71/8 30/72/8 27/69/8
f 26/73/9 25/74/9 31/75/9
f 31/75/9 29/76/9 26/73/9
f 30/77/10 29/78/10 31/79/10
f 31/79/10 32/80/10 30/77/10
f 32/81/11 31/82/11 25/83/11
f 25/83/11 28/84/11 32/81/11
f 30/85/12 32/86/12 28/87/12
f 28/87/12 27/88/12 30/85/12
f 33/89/13 34/90/14 35/91/14
f 35/91/14 36/92/13 33/89/13
f 35/91/14 34/90/14 37/93/12
f 37/93/12 38/94/12 35/91/14
f 39/95/12 40/96/15 41/97/15
f 41/97/15 42/98/12 39/95/12
f 41/97/15 40/96/15 43/99/16
f 43/99/16 44/100/16 41/97/15
f 45/101/13 46/102/13 47/103/14
f 47/103/14 48/104/14 45/101/13
f 47/103/14 49/105/12 50/106/12
f 50/106/12 48/104/14 47/103/14
f 51/107/12 52/108/12 53/109/15
f 53/109/15 54/110/15 51/107/12
f 53/109/15 55/111/16 56/112/16
f 56/112/16 54/110/15 53/109/15
o RAIL_RIGHT_mvpRail
v 0.500000 0.406250 -0.749999
v 0.500000 0.343750 -0.749999
v 0.500000 0.343750 -0.874999
v 0.500000 0.406250 -0.874999
v -0.500000 0.343750 -0.874999
v -0.500000 0.406250 -0.874999
v 0.500000 0.343750 -0.843749
v 0.500000 0.343750 -0.781249
v 0.500000 0.218750 -0.781249
v 0.500000 0.218750 -0.843749
v 0.500000 0.218750 -0.718749
v 0.500000 0.156250 -0.718749
v 0.500000 0.156250 -0.906249
v 0.500000 0.218750 -0.906249
v -0.500000 0.156250 -0.906249
v -0.500000 0.218750 -0.906249
v -0.500000 0.218750 -0.718749
v -0.500000 0.218750 -0.843749
v -0.500000 0.343750 -0.843749
v -0.500000 0.406250 -0.749999
v -0.500000 0.343750 -0.749999
v -0.500000 0.343750 -0.781249
v -0.500000 0.218750 -0.781249
v -0.500000 0.156250 -0.718749
vt 0.171880 0.710940
vt 0.171880 0.703130
vt 0.187500 0.703130
vt 0.187500 0.710940
vt 0.593750 0.742190
vt 0.468750 0.742190
vt 0.468750 0.750000
vt 0.593750 0.750000
vt 0.187500 0.703130
vt 0.179690 0.703130
vt 0.179690 0.687500
vt 0.187500 0.687500
vt 0.171880 0.687500
vt 0.171880 0.679690
vt 0.195310 0.679690
vt 0.195310 0.687500
vt 0.593750 0.718750
vt 0.468750 0.718750
vt 0.468750 0.726560
vt 0.593750 0.726560
vt 0.046880 0.804690
vt 0.046880 0.828130
vt 0.171880 0.828130
vt 0.171880 0.804690
vt 0.593750 0.726560
vt 0.468750 0.726560
vt 0.468750 0.742190
vt 0.593750 0.742190
vt 0.414060 0.765630
vt 0.414060 0.750000
vt 0.289060 0.750000
vt 0.289060 0.765630
vt 0.187500 0.710940
vt 0.187500 0.703130
vt 0.171880 0.703130
vt 0.171880 0.710940
vt 0.179690 0.703130
vt 0.187500 0.703130
vt 0.187500 0.687500
vt 0.179690 0.687500
vt 0.195310 0.687500
vt 0.195310 0.679690
vt 0.171880 0.679690
vt 0.171880 0.687500
vt 0.609380 0.867190
vt 0.484380 0.867190
vt 0.484380 0.882810
vt 0.609380 0.882810
vt 0.468750 0.726560
vt 0.468750 0.718750
vt 0.593750 0.718750
vt 0.593750 0.726560
vt 0.296880 0.820310
vt 0.171880 0.820310
vt 0.171880 0.804690
vt 0.296880 0.804690
vt 0.289060 0.742190
vt 0.414060 0.742190
vt 0.414060 0.750000
vt 0.289060 0.750000
vt 0.171880 0.828130
vt 0.171880 0.804690
vt 0.296880 0.804690
vt 0.296880 0.828130
vn 1.0000 0.0000 0.0000
vn 0.0000 0.0000 -1.0000
vn 0.0000 1.0000 0.0000
vn -1.0000 0.0000 0.0000
vn 0.0000 0.0000 1.0000
vn 0.0000 -1.0000 -0.0000
usemtl mat1
s 1
f 57/113/17 58/114/17 59/115/17
f 59/115/17 60/116/17 57/113/17
f 59/117/18 61/118/18 62/119/18
f 62/119/18 60/120/18 59/117/18
f 63/121/17 64/122/17 65/123/17
f 65/123/17 66/124/17 63/121/17
f 67/125/17 68/126/17 69/127/17
f 69/127/17 70/128/17 67/125/17
f 69/129/18 71/130/18 72/131/18
f 72/131/18 70/132/18 69/129/18
f 72/133/19 73/134/19 67/135/19
f 67/135/19 70/136/19 72/133/19
f 66/137/18 74/138/18 75/139/18
f 75/139/18 63/140/18 66/137/18
f 57/141/19 60/142/19 62/143/19
f 62/143/19 76/144/19 57/141/19
f 62/145/20 61/146/20 77/147/20
f 77/147/20 76/148/20 62/145/20
f 78/149/20 75/150/20 74/151/20
f 74/151/20 79/152/20 78/149/20
f 72/153/20 71/154/20 80/155/20
f 80/155/20 73/156/20 72/153/20
f 64/157/21 78/158/21 79/159/21
f 79/159/21 65/160/21 64/157/21
f 73/161/21 80/162/21 68/163/21
f 68/163/21 67/164/21 73/161/21
f 58/165/22 77/166/22 61/167/22
f 61/167/22 59/168/22 58/165/22
f 77/169/21 58/170/21 57/171/21
f 57/171/21 76/172/21 77/169/21
f 80/173/22 71/174/22 69/175/22
f 69/175/22 68/176/22 80/173/22
