# Blender v2.79 (sub 0) OBJ File: ''
# www.blender.org
mtllib mvp_ir_ct_end_rail.mtl
o RAIL_LEFT_mvpRail
v 0.169166 0.312564 0.125000
v 0.169166 0.250064 0.125000
v 0.124972 0.250064 0.080806
v 0.124972 0.312564 0.080806
v 0.080778 0.250064 0.125000
v 0.080778 0.312564 0.125000
v 0.124972 0.250064 0.169194
v 0.124972 0.312564 0.169194
v 0.169166 0.250064 0.125000
v 0.169166 0.312564 0.125000
v 0.124972 0.312564 0.080806
v 0.080778 0.312564 0.125000
v -0.080834 0.312564 0.125000
v -0.080834 0.250064 0.125000
v -0.125028 0.250064 0.080806
v -0.125028 0.312564 0.080806
v -0.169222 0.250064 0.125000
v -0.169222 0.312564 0.125000
v -0.125028 0.250064 0.169194
v -0.125028 0.312564 0.169194
v -0.080834 0.250064 0.125000
v -0.080834 0.312564 0.125000
v -0.125028 0.312564 0.080806
v -0.169222 0.312564 0.125000
vt 0.054688 0.875000
vt 0.054688 0.867188
vt 0.062500 0.867188
vt 0.062500 0.875000
vt 0.070312 0.867188
vt 0.070312 0.875000
vt 0.078125 0.867188
vt 0.078125 0.875000
vt 0.085938 0.867188
vt 0.085938 0.875000
vt 0.085938 0.882812
vt 0.078125 0.882812
vt 0.125000 0.875000
vt 0.125000 0.867188
vt 0.132812 0.867188
vt 0.132812 0.875000
vt 0.140625 0.867188
vt 0.140625 0.875000
vt 0.148438 0.867188
vt 0.148438 0.875000
vt 0.156250 0.867188
vt 0.156250 0.875000
vt 0.156250 0.882812
vt 0.148438 0.882812
vn 0.7071 0.0000 -0.7071
vn -0.7071 0.0000 -0.7071
vn -0.7071 0.0000 0.7071
vn 0.7071 0.0000 0.7071
vn 0.0000 1.0000 0.0000
usemtl mat1
s off
f 1/1/1 2/2/1 3/3/1 4/4/1
f 4/4/2 3/3/2 5/5/2 6/6/2
f 6/6/3 5/5/3 7/7/3 8/8/3
f 8/8/4 7/7/4 9/9/4 10/10/4
f 11/11/5 12/12/5 8/8/5 10/10/5
f 13/13/1 14/14/1 15/15/1 16/16/1
f 16/16/2 15/15/2 17/17/2 18/18/2
f 18/18/3 17/17/3 19/19/3 20/20/3
f 20/20/4 19/19/4 21/21/4 22/22/4
f 23/23/5 24/24/5 20/20/5 22/22/5
o RAIL_BASE_mvpRail
v -4.500028 0.187564 0.437503
v -4.500028 0.375064 0.437503
v -4.312528 0.375064 0.437503
v -4.312528 0.187564 0.437503
v -4.500028 0.375064 0.500003
v -4.500028 0.250064 0.500003
v -4.312528 0.250064 0.500003
v -4.312528 0.375064 0.500003
v -4.500028 0.375064 0.437503
v -4.500028 0.375064 0.500003
v -4.312528 0.375064 0.500003
v -4.312528 0.375064 0.437503
v -4.500028 0.250064 0.624997
v -4.500028 0.187564 0.624997
v -4.312528 0.187564 0.624997
v -4.312528 0.250064 0.624997
v -4.500028 0.375064 -0.500003
v -4.500028 0.375064 -0.437503
v -4.312528 0.375064 -0.437503
v -4.312528 0.375064 -0.500003
v -4.500028 0.250064 -0.500003
v -4.500028 0.375064 -0.500003
v -4.312528 0.375064 -0.500003
v -4.312528 0.250064 -0.500003
v -4.500028 0.375064 -0.437503
v -4.500028 0.187564 -0.437503
v -4.312528 0.187564 -0.437503
v -4.312528 0.375064 -0.437503
v -4.500028 0.187564 -0.624997
v -4.312528 0.187564 -0.624997
v -4.500028 0.250064 -0.624997
v -4.312528 0.250064 -0.624997
v -4.312528 0.187564 0.437503
v -4.312528 0.375064 0.437503
v -0.312528 0.375064 0.000000
v -0.312528 0.187564 0.000000
v -4.312528 0.375064 0.500003
v -4.312528 0.250064 0.500003
v -0.312528 0.250064 0.062503
v -0.312528 0.375064 0.062503
v -4.312528 0.375064 0.437503
v -0.312528 0.375064 0.000000
v -4.312528 0.250064 0.624997
v -4.312528 0.187564 0.624997
v -0.312528 0.187564 0.187497
v -0.312528 0.250064 0.187497
v -4.312528 0.250064 0.624997
v -0.312528 0.250064 0.187497
v -4.312528 0.187564 0.437503
v -0.312528 0.187564 0.000000
v -4.312528 0.375064 -0.500003
v -4.312528 0.375064 -0.437503
v -0.312528 0.375064 0.000000
v -0.312528 0.375064 -0.062503
v -4.312528 0.250064 -0.500003
v -4.312528 0.375064 -0.500003
v -0.312528 0.375064 -0.062503
v -0.312528 0.250064 -0.062503
v -4.312528 0.187564 -0.437503
v -4.312528 0.187564 -0.437503
v -4.312528 0.187564 -0.624997
v -0.312528 0.187564 -0.187497
v -0.312528 0.187564 0.000000
v -4.312528 0.250064 -0.624997
v -0.312528 0.250064 -0.187497
v -4.312528 0.187564 -0.624997
v -0.312528 0.187564 -0.187497
v -0.312528 0.250064 0.187497
v -0.312528 0.187564 0.187497
v 0.312472 0.187567 0.187498
v 0.312472 0.250066 0.187498
v -0.312528 0.250064 0.062503
v -0.312528 0.250064 0.187497
v 0.312472 0.250066 0.187498
v 0.312472 0.250065 0.062506
v -0.312528 0.187564 0.000000
v 0.312472 0.187565 0.000000
v 0.312472 0.187565 0.000000
v 0.312472 0.250065 0.062506
v 0.312472 0.250066 0.187498
v 0.312472 0.187567 0.187498
v -0.312528 0.375064 0.062503
v 0.312472 0.375064 0.062508
v -0.312528 0.375064 0.000000
v -0.312528 0.375064 0.062503
v 0.312472 0.375064 0.062508
v 0.312472 0.375064 0.000000
v 0.312472 0.375064 0.000000
v 0.312472 0.375064 0.062508
v -0.312528 0.375064 -0.062503
v 0.312472 0.375064 -0.062508
v -0.312528 0.250064 -0.062503
v -0.312528 0.375064 -0.062503
v 0.312472 0.375064 -0.062508
v 0.312472 0.250065 -0.062506
v 0.312472 0.250065 -0.062506
v 0.312472 0.375064 -0.062508
v -0.312528 0.250064 -0.187497
v 0.312472 0.250067 -0.187498
v -0.312528 0.187564 -0.187497
v -0.312528 0.250064 -0.187497
v 0.312472 0.250067 -0.187498
v 0.312472 0.187567 -0.187498
v -0.312528 0.187564 0.000000
v 0.312472 0.187565 0.000000
v 0.312472 0.187567 -0.187498
v 0.312472 0.250067 -0.187498
v -1.674583 0.281314 0.156253
v -1.718778 0.237120 0.156253
v -1.718778 0.237120 -0.156247
v -1.674583 0.281314 -0.156247
v -1.718778 0.325508 0.156253
v -1.718778 0.325508 -0.156247
v -1.762972 0.281314 0.156253
v -1.718778 0.325508 0.156253
v -1.718778 0.325508 -0.156247
v -1.762972 0.281314 -0.156247
v -2.862083 0.281314 0.312503
v -2.906278 0.237120 0.312503
v -2.906278 0.237120 -0.312497
v -2.862083 0.281314 -0.312497
v -2.906278 0.325508 0.312503
v -2.906278 0.325508 -0.312497
v -2.950472 0.281314 0.312503
v -2.906278 0.325508 0.312503
v -2.906278 0.325508 -0.312497
v -2.950472 0.281314 -0.312497
v -4.093778 0.250064 0.437502
v -3.906278 0.250064 0.437503
v -3.906277 0.250064 0.250003
v -4.093777 0.250064 0.250002
v -4.093778 0.187564 0.437502
v -4.093777 0.187564 0.250002
v -3.906278 0.187564 0.437503
v -3.906277 0.187564 0.250003
v -3.906277 0.187564 0.250003
v -4.093777 0.187564 0.250002
v -3.906277 0.250064 0.250003
v -3.906278 0.375064 0.437503
v -3.906278 0.250064 0.437503
v -3.968777 0.250064 0.250002
v -3.968778 0.250064 0.437502
v -3.968778 0.375064 0.437502
v -3.968778 0.375064 0.437502
v -3.906278 0.375064 0.437503
v -3.906277 0.250064 0.250003
v -3.968777 0.250064 0.250002
v -4.031277 0.250064 0.250003
v -4.031278 0.375064 0.437503
v -4.031278 0.250064 0.437503
v -4.093777 0.250064 0.250002
v -4.093778 0.250064 0.437502
v -4.093778 0.375064 0.437502
v -4.093778 0.375064 0.437502
v -4.031278 0.375064 0.437503
v -4.031277 0.250064 0.250003
v -4.093777 0.250064 0.250002
v -3.906277 0.250064 -0.250003
v -3.906278 0.250064 -0.437503
v -4.093778 0.250064 -0.437502
v -4.093777 0.250064 -0.250002
v -4.093778 0.187564 -0.437502
v -4.093777 0.187564 -0.250002
v -3.906277 0.187564 -0.250003
v -3.906278 0.187564 -0.437503
v -4.093777 0.187564 -0.250002
v -3.906277 0.187564 -0.250003
v -3.906278 0.375064 -0.437503
v -3.906277 0.250064 -0.250003
v -3.906278 0.250064 -0.437503
v -3.968778 0.250064 -0.437502
v -3.968777 0.250064 -0.250002
v -3.968778 0.375064 -0.437502
v -3.906277 0.250064 -0.250003
v -3.906278 0.375064 -0.437503
v -3.968778 0.375064 -0.437502
v -3.968777 0.250064 -0.250002
v -4.031278 0.375064 -0.437503
v -4.031277 0.250064 -0.250003
v -4.031278 0.250064 -0.437503
v -4.093778 0.250064 -0.437502
v -4.093777 0.250064 -0.250002
v -4.093778 0.375064 -0.437502
v -4.031277 0.250064 -0.250003
v -4.031278 0.375064 -0.437503
v -4.093778 0.375064 -0.437502
v -4.093777 0.250064 -0.250002
v -4.500028 0.250064 0.624997
v -4.500028 0.250064 0.500003
v -4.500028 0.187564 0.437503
v -4.500028 0.187564 0.624997
v -4.500028 0.375064 0.500003
v -4.500028 0.375064 0.437503
v -4.500028 0.187564 -0.437503
v -4.500028 0.250064 -0.500003
v -4.500028 0.250064 -0.624997
v -4.500028 0.187564 -0.624997
v -4.500028 0.375064 -0.437503
v -4.500028 0.375064 -0.500003
vt 0.031250 0.671875
vt 0.007812 0.671875
vt 0.007812 0.648438
vt 0.031250 0.648438
vt 0.093750 0.671875
vt 0.078125 0.671875
vt 0.078125 0.648438
vt 0.093750 0.648438
vt 0.007812 0.679688
vt 0.007812 0.671875
vt 0.031250 0.671875
vt 0.031250 0.679688
vt 0.062500 0.671875
vt 0.054688 0.671875
vt 0.054688 0.648438
vt 0.062500 0.648438
vt 0.007812 0.687500
vt 0.007812 0.679688
vt 0.031250 0.679688
vt 0.031250 0.687500
vt 0.109375 0.671875
vt 0.093750 0.671875
vt 0.093750 0.648438
vt 0.109375 0.648438
vt 0.179688 0.671875
vt 0.156250 0.671875
vt 0.156250 0.648438
vt 0.179688 0.648438
vt 0.132812 0.671875
vt 0.132812 0.648438
vt 0.125000 0.671875
vt 0.125000 0.648438
vt 0.484375 0.648438
vt 0.484375 0.671875
vt 0.007812 0.671875
vt 0.007812 0.648438
vt 0.007812 0.671875
vt 0.007812 0.656250
vt 0.484375 0.656250
vt 0.484375 0.671875
vt 0.007812 0.679688
vt 0.484375 0.679688
vt 0.007812 0.671875
vt 0.007812 0.664062
vt 0.484375 0.664062
vt 0.484375 0.671875
vt 0.007812 0.640625
vt 0.484375 0.640625
vt 0.007812 0.648438
vt 0.484375 0.648438
vt 0.007812 0.679688
vt 0.007812 0.671875
vt 0.484375 0.671875
vt 0.484375 0.679688
vt 0.007812 0.656250
vt 0.007812 0.640625
vt 0.484375 0.640625
vt 0.484375 0.656250
vt 0.007812 0.648438
vt 0.007812 0.671875
vt 0.007812 0.648438
vt 0.484375 0.648438
vt 0.484375 0.671875
vt 0.007812 0.664062
vt 0.484375 0.664062
vt 0.007812 0.671875
vt 0.484375 0.671875
vt 0.257812 0.671875
vt 0.257812 0.664062
vt 0.335938 0.664062
vt 0.335938 0.671875
vt 0.179688 0.656250
vt 0.179688 0.640625
vt 0.257812 0.640625
vt 0.257812 0.656250
vt 0.257812 0.640625
vt 0.335938 0.640625
vt 0.195312 0.890625
vt 0.203125 0.882812
vt 0.218750 0.882812
vt 0.218750 0.890625
vt 0.179688 0.671875
vt 0.257812 0.671875
vt 0.031250 0.679688
vt 0.031250 0.671875
vt 0.109375 0.671875
vt 0.109375 0.679688
vt 0.195312 0.867188
vt 0.203125 0.867188
vt 0.031250 0.687500
vt 0.109375 0.687500
vt 0.257812 0.656250
vt 0.257812 0.640625
vt 0.335938 0.640625
vt 0.335938 0.656250
vt 0.187500 0.882812
vt 0.187500 0.867188
vt 0.257812 0.671875
vt 0.335938 0.671875
vt 0.335938 0.648438
vt 0.335938 0.640625
vt 0.414062 0.640625
vt 0.414062 0.648438
vt 0.335938 0.671875
vt 0.414062 0.671875
vt 0.171875 0.890625
vt 0.171875 0.882812
vt 0.085938 0.867188
vt 0.085938 0.875000
vt 0.046875 0.875000
vt 0.046875 0.867188
vt 0.085938 0.859375
vt 0.046875 0.859375
vt 0.085938 0.882812
vt 0.085938 0.890625
vt 0.046875 0.890625
vt 0.046875 0.882812
vt 0.171875 0.867188
vt 0.171875 0.875000
vt 0.093750 0.875000
vt 0.093750 0.867188
vt 0.171875 0.859375
vt 0.093750 0.859375
vt 0.171875 0.882812
vt 0.171875 0.890625
vt 0.093750 0.890625
vt 0.093750 0.882812
vt 0.406250 0.679688
vt 0.406250 0.703125
vt 0.382812 0.703125
vt 0.382812 0.679688
vt 0.406250 0.671875
vt 0.382812 0.671875
vt 0.406250 0.710938
vt 0.382812 0.710938
vt 0.375000 0.703125
vt 0.375000 0.679688
vt 0.460938 0.820312
vt 0.437500 0.835938
vt 0.437500 0.820312
vt 0.460938 0.820312
vt 0.484375 0.820312
vt 0.484375 0.835938
vt 0.390625 0.820312
vt 0.390625 0.828125
vt 0.359375 0.828125
vt 0.359375 0.820312
vt 0.460938 0.835938
vt 0.437500 0.851562
vt 0.437500 0.835938
vt 0.460938 0.835938
vt 0.484375 0.835938
vt 0.484375 0.851562
vt 0.390625 0.828125
vt 0.390625 0.835938
vt 0.359375 0.835938
vt 0.359375 0.828125
vt 0.351562 0.679688
vt 0.375000 0.679688
vt 0.375000 0.703125
vt 0.351562 0.703125
vt 0.375000 0.710938
vt 0.351562 0.710938
vt 0.351562 0.671875
vt 0.375000 0.671875
vt 0.343750 0.703125
vt 0.343750 0.679688
vt 0.414062 0.851562
vt 0.390625 0.835938
vt 0.414062 0.835938
vt 0.414062 0.820312
vt 0.437500 0.820312
vt 0.414062 0.835938
vt 0.359375 0.843750
vt 0.390625 0.843750
vt 0.390625 0.851562
vt 0.359375 0.851562
vt 0.414062 0.835938
vt 0.390625 0.820312
vt 0.414062 0.820312
vt 0.414062 0.835938
vt 0.437500 0.835938
vt 0.414062 0.851562
vt 0.359375 0.835938
vt 0.390625 0.835938
vt 0.390625 0.843750
vt 0.359375 0.843750
vt 0.203125 0.867188
vt 0.203125 0.882812
vt 0.195312 0.890625
vt 0.195312 0.867188
vt 0.218750 0.882812
vt 0.218750 0.890625
vt 0.242188 0.867188
vt 0.250000 0.875000
vt 0.250000 0.890625
vt 0.242188 0.890625
vt 0.265625 0.867188
vt 0.265625 0.875000
vn 0.0000 0.0000 -1.0000
vn 0.0000 0.0000 1.0000
vn 0.0000 1.0000 0.0000
vn 0.0000 -1.0000 -0.0000
vn -0.1087 0.0000 -0.9941
vn 0.1087 0.0000 0.9941
vn 0.1087 0.0000 -0.9941
vn -0.1087 -0.0000 0.9941
vn 1.0000 0.0000 0.0000
vn 0.7071 -0.7071 -0.0000
vn 0.7071 0.7071 0.0000
vn -0.7071 0.7071 0.0000
vn -0.7071 -0.7071 -0.0000
vn -1.0000 0.0000 -0.0000
vn 0.0000 0.8321 -0.5547
vn 0.0000 0.8321 0.5547
usemtl mat1
s off
f 25/25/6 26/26/6 27/27/6 28/28/6
f 29/29/7 30/30/7 31/31/7 32/32/7
f 33/33/8 34/34/8 35/35/8 36/36/8
f 37/37/7 38/38/7 39/39/7 40/40/7
f 30/30/8 37/37/8 40/40/8 31/31/8
f 38/38/9 25/25/9 28/28/9 39/39/9
f 41/41/8 42/42/8 43/43/8 44/44/8
f 45/45/6 46/46/6 47/47/6 48/48/6
f 49/49/7 50/50/7 51/51/7 52/52/7
f 50/50/9 53/53/9 54/54/9 51/51/9
f 55/55/8 45/45/8 48/48/8 56/56/8
f 53/53/6 55/55/6 56/56/6 54/54/6
f 57/57/10 58/58/10 59/59/10 60/60/10
f 61/61/11 62/62/11 63/63/11 64/64/11
f 65/65/8 61/61/8 64/64/8 66/66/8
f 67/67/11 68/68/11 69/69/11 70/70/11
f 62/62/8 71/71/8 72/72/8 63/63/8
f 68/68/9 73/73/9 74/74/9 69/69/9
f 75/75/8 76/76/8 77/77/8 78/78/8
f 79/79/12 80/80/12 81/81/12 82/82/12
f 76/76/13 83/83/13 74/74/13 77/77/13
f 84/84/9 85/85/9 86/86/9 87/87/9
f 88/88/8 79/79/8 82/82/8 89/89/8
f 90/90/12 88/88/12 89/89/12 91/91/12
f 92/92/7 93/93/7 94/94/7 95/95/7
f 96/96/8 97/97/8 98/98/8 99/99/8
f 93/93/9 100/100/9 101/101/9 94/94/9
f 102/102/14 103/103/14 104/104/14 105/105/14
f 106/106/7 96/96/7 99/99/7 107/107/7
f 108/108/8 109/109/8 110/110/8 111/111/8
f 102/102/14 112/112/14 113/113/14 103/103/14
f 114/114/8 108/108/8 111/111/8 115/115/8
f 116/116/6 117/117/6 118/118/6 119/119/6
f 102/102/14 120/120/14 121/121/14 112/112/14
f 122/122/8 116/116/8 119/119/8 123/123/8
f 124/124/6 125/125/6 126/126/6 127/127/6
f 128/128/9 124/124/9 127/127/9 129/129/9
f 130/130/14 131/131/14 120/120/14 102/102/14
f 132/132/15 133/133/15 134/134/15 135/135/15
f 136/136/16 132/132/16 135/135/16 137/137/16
f 138/138/17 139/139/17 140/140/17 141/141/17
f 133/133/18 138/138/18 141/141/18 134/134/18
f 142/142/15 143/143/15 144/144/15 145/145/15
f 146/146/16 142/142/16 145/145/16 147/147/16
f 148/148/17 149/149/17 150/150/17 151/151/17
f 143/143/18 148/148/18 151/151/18 144/144/18
f 152/152/8 153/153/8 154/154/8 155/155/8
f 156/156/19 152/152/19 155/155/19 157/157/19
f 153/153/14 158/158/14 159/159/14 154/154/14
f 160/160/6 161/161/6 155/155/6 154/154/6
f 162/162/14 163/163/14 164/164/14
f 165/165/19 166/166/19 167/167/19
f 168/168/20 169/169/20 170/170/20 171/171/20
f 172/172/14 173/173/14 174/174/14
f 175/175/19 176/176/19 177/177/19
f 178/178/20 179/179/20 180/180/20 181/181/20
f 182/182/8 183/183/8 184/184/8 185/185/8
f 185/185/19 184/184/19 186/186/19 187/187/19
f 188/188/14 189/189/14 183/183/14 182/182/14
f 185/185/7 190/190/7 191/191/7 182/182/7
f 192/192/14 193/193/14 194/194/14
f 195/195/19 196/196/19 197/197/19
f 198/198/21 199/199/21 200/200/21 201/201/21
f 202/202/14 203/203/14 204/204/14
f 205/205/19 206/206/19 207/207/19
f 208/208/21 209/209/21 210/210/21 211/211/21
f 212/212/19 213/213/19 214/214/19 215/215/19
f 213/213/19 216/216/19 217/217/19 214/214/19
f 218/218/19 219/219/19 220/220/19 221/221/19
f 222/222/19 223/223/19 219/219/19 218/218/19
o RAIL_RIGHT_mvpRail
v 0.124972 0.250064 -0.080806
v 0.169166 0.250064 -0.125000
v 0.169166 0.312564 -0.125000
v 0.124972 0.312564 -0.080806
v 0.080778 0.250064 -0.125000
v 0.080778 0.312564 -0.125000
v 0.124972 0.250064 -0.169194
v 0.124972 0.312564 -0.169194
v 0.169166 0.250064 -0.125000
v 0.169166 0.312564 -0.125000
v 0.080778 0.312564 -0.125000
v 0.124972 0.312564 -0.080806
v -0.125028 0.250064 -0.080806
v -0.080834 0.250064 -0.125000
v -0.080834 0.312564 -0.125000
v -0.125028 0.312564 -0.080806
v -0.169222 0.250064 -0.125000
v -0.169222 0.312564 -0.125000
v -0.125028 0.250064 -0.169194
v -0.125028 0.312564 -0.169194
v -0.080834 0.250064 -0.125000
v -0.080834 0.312564 -0.125000
v -0.169222 0.312564 -0.125000
v -0.125028 0.312564 -0.080806
vt 0.109375 0.867188
vt 0.117188 0.867188
vt 0.117188 0.875000
vt 0.109375 0.875000
vt 0.101562 0.867188
vt 0.101562 0.875000
vt 0.093750 0.867188
vt 0.093750 0.875000
vt 0.085938 0.867188
vt 0.085938 0.875000
vt 0.093750 0.882812
vt 0.085938 0.882812
vt 0.101562 0.882812
vt 0.093750 0.882812
vt 0.093750 0.875000
vt 0.101562 0.875000
vt 0.109375 0.882812
vt 0.109375 0.875000
vt 0.117188 0.882812
vt 0.117188 0.875000
vt 0.125000 0.882812
vt 0.125000 0.875000
vt 0.117188 0.867188
vt 0.125000 0.867188
vn 0.7071 -0.0000 0.7071
vn -0.7071 -0.0000 0.7071
vn -0.7071 0.0000 -0.7071
vn 0.7071 0.0000 -0.7071
vn 0.0000 1.0000 0.0000
usemtl mat1
s off
f 224/224/22 225/225/22 226/226/22 227/227/22
f 228/228/23 224/224/23 227/227/23 229/229/23
f 230/230/24 228/228/24 229/229/24 231/231/24
f 232/232/25 230/230/25 231/231/25 233/233/25
f 231/231/26 234/234/26 235/235/26 233/233/26
f 236/236/22 237/237/22 238/238/22 239/239/22
f 240/240/23 236/236/23 239/239/23 241/241/23
f 242/242/24 240/240/24 241/241/24 243/243/24
f 244/244/25 242/242/25 243/243/25 245/245/25
f 243/243/26 246/246/26 247/247/26 245/245/26
