# Blender v2.79 (sub 0) OBJ File: ''
# www.blender.org
mtllib mvp_ir_grunt_w.mtl
o RAIL_LEFT_mvpRail_WG
v 0.500000 0.218750 0.906249
v 0.500000 0.218750 0.718749
v -0.500000 0.218750 0.718749
v -0.500000 0.218750 0.906249
v -0.500000 0.218750 0.718749
v 0.500000 0.218750 0.718749
v 0.500000 0.156250 0.718749
v -0.500000 0.156250 0.718749
v 0.500000 0.156250 0.718749
v 0.500000 0.218750 0.718749
v 0.500000 0.218750 0.906249
v 0.500000 0.156250 0.906249
v -0.500000 0.343750 0.781249
v 0.500000 0.343750 0.781249
v 0.500000 0.218750 0.781249
v -0.500000 0.218750 0.781249
v 0.500000 0.218750 0.781249
v 0.500000 0.343750 0.781249
v 0.500000 0.343750 0.843749
v 0.500000 0.218750 0.843749
v 0.500000 0.343750 0.874999
v 0.500000 0.343750 0.749999
v 0.500000 0.406250 0.749999
v 0.500000 0.406250 0.874999
v 0.500000 0.406250 0.749999
v 0.500000 0.343750 0.749999
v -0.500000 0.343750 0.749999
v -0.500000 0.406250 0.749999
v -0.500000 0.406250 0.749999
v -0.500000 0.406250 0.874999
v 0.500000 0.406250 0.874999
v 0.500000 0.406250 0.749999
v -0.500000 0.406250 0.874999
v -0.500000 0.406250 0.749999
v -0.500000 0.343750 0.749999
v -0.500000 0.343750 0.874999
v -0.500000 0.343750 0.781249
v -0.500000 0.218750 0.781249
v -0.500000 0.218750 0.843749
v -0.500000 0.343750 0.843749
v -0.500000 0.218750 0.718749
v -0.500000 0.156250 0.718749
v -0.500000 0.156250 0.906249
v -0.500000 0.218750 0.906249
v 0.500000 0.406250 0.874999
v -0.500000 0.406250 0.874999
v -0.500000 0.343750 0.874999
v 0.500000 0.343750 0.874999
v -0.500000 0.343750 0.843749
v -0.500000 0.218750 0.843749
v 0.500000 0.218750 0.843749
v 0.500000 0.343750 0.843749
v 0.500000 0.218750 0.906249
v -0.500000 0.218750 0.906249
v -0.500000 0.156250 0.906249
v 0.500000 0.156250 0.906249
v 0.500000 0.343750 0.874999
v -0.500000 0.343750 0.874999
v -0.500000 0.343750 0.749999
v 0.500000 0.343750 0.749999
v -0.500000 0.156250 0.718749
v 0.500000 0.156250 0.718749
v 0.500000 0.156250 0.906249
v -0.500000 0.156250 0.906249
vt 0.171875 0.804687
vt 0.171875 0.828125
vt 0.046875 0.828125
vt 0.046875 0.804688
vt 0.468750 0.726562
vt 0.593750 0.726562
vt 0.593750 0.718750
vt 0.468750 0.718750
vt 0.171875 0.679687
vt 0.171875 0.687500
vt 0.195313 0.687500
vt 0.195313 0.679687
vt 0.484375 0.867187
vt 0.609375 0.867188
vt 0.609375 0.882813
vt 0.484375 0.882812
vt 0.179688 0.687500
vt 0.179688 0.703125
vt 0.187500 0.703125
vt 0.187500 0.687500
vt 0.187500 0.703125
vt 0.171875 0.703125
vt 0.171875 0.710937
vt 0.187500 0.710937
vt 0.414063 0.750000
vt 0.414063 0.742188
vt 0.289063 0.742188
vt 0.289063 0.750000
vt 0.289063 0.765625
vt 0.289063 0.750000
vt 0.414063 0.750000
vt 0.414063 0.765625
vt 0.187500 0.710937
vt 0.171875 0.710937
vt 0.171875 0.703125
vt 0.187500 0.703125
vt 0.179688 0.703125
vt 0.179688 0.687500
vt 0.187500 0.687500
vt 0.187500 0.703125
vt 0.171875 0.687500
vt 0.171875 0.679687
vt 0.195313 0.679687
vt 0.195313 0.687500
vt 0.593750 0.750000
vt 0.468750 0.750000
vt 0.468750 0.742187
vt 0.593750 0.742187
vt 0.468750 0.742187
vt 0.468750 0.726562
vt 0.593750 0.726562
vt 0.593750 0.742187
vt 0.593750 0.726562
vt 0.468750 0.726562
vt 0.468750 0.718750
vt 0.593750 0.718750
vt 0.296875 0.804688
vt 0.171875 0.804687
vt 0.171875 0.820312
vt 0.296875 0.820313
vt 0.171875 0.828125
vt 0.296875 0.828125
vt 0.296875 0.804688
vt 0.171875 0.804687
vn 0.0000 1.0000 0.0000
vn 0.0000 0.0000 -1.0000
vn 1.0000 0.0000 0.0000
vn -1.0000 0.0000 0.0000
vn 0.0000 0.0000 1.0000
vn 0.0000 -1.0000 -0.0000
usemtl mat1
s off
f 1/1/1 2/2/1 3/3/1
f 3/3/1 4/4/1 1/1/1
f 5/5/2 6/6/2 7/7/2
f 7/7/2 8/8/2 5/5/2
f 9/9/3 10/10/3 11/11/3
f 11/11/3 12/12/3 9/9/3
f 13/13/2 14/14/2 15/15/2
f 15/15/2 16/16/2 13/13/2
f 17/17/3 18/18/3 19/19/3
f 19/19/3 20/20/3 17/17/3
f 21/21/3 22/22/3 23/23/3
f 23/23/3 24/24/3 21/21/3
f 25/25/2 26/26/2 27/27/2
f 27/27/2 28/28/2 25/25/2
f 29/29/1 30/30/1 31/31/1
f 31/31/1 32/32/1 29/29/1
f 33/33/4 34/34/4 35/35/4
f 35/35/4 36/36/4 33/33/4
f 37/37/4 38/38/4 39/39/4
f 39/39/4 40/40/4 37/37/4
f 41/41/4 42/42/4 43/43/4
f 43/43/4 44/44/4 41/41/4
f 45/45/5 46/46/5 47/47/5
f 47/47/5 48/48/5 45/45/5
f 49/49/5 50/50/5 51/51/5
f 51/51/5 52/52/5 49/49/5
f 53/53/5 54/54/5 55/55/5
f 55/55/5 56/56/5 53/53/5
f 57/57/6 58/58/6 59/59/6
f 59/59/6 60/60/6 57/57/6
f 61/61/6 62/62/6 63/63/6
f 63/63/6 64/64/6 61/61/6
o RAIL_RIGHT_mvpRail_WG
v 0.500000 0.406250 -0.749999
v 0.500000 0.343750 -0.749999
v 0.500000 0.343750 -0.874999
v 0.500000 0.406250 -0.874999
v 0.500000 0.343750 -0.874999
v -0.500000 0.343750 -0.874999
v -0.500000 0.406250 -0.874999
v 0.500000 0.406250 -0.874999
v 0.500000 0.343750 -0.843749
v 0.500000 0.343750 -0.781249
v 0.500000 0.218750 -0.781249
v 0.500000 0.218750 -0.843749
v 0.500000 0.218750 -0.718749
v 0.500000 0.156250 -0.718749
v 0.500000 0.156250 -0.906249
v 0.500000 0.218750 -0.906249
v 0.500000 0.156250 -0.906249
v -0.500000 0.156250 -0.906249
v -0.500000 0.218750 -0.906249
v 0.500000 0.218750 -0.906249
v -0.500000 0.218750 -0.906249
v -0.500000 0.218750 -0.718749
v 0.500000 0.218750 -0.718749
v 0.500000 0.218750 -0.906249
v 0.500000 0.218750 -0.843749
v -0.500000 0.218750 -0.843749
v -0.500000 0.343750 -0.843749
v 0.500000 0.343750 -0.843749
v 0.500000 0.406250 -0.749999
v 0.500000 0.406250 -0.874999
v -0.500000 0.406250 -0.874999
v -0.500000 0.406250 -0.749999
v -0.500000 0.406250 -0.874999
v -0.500000 0.343750 -0.874999
v -0.500000 0.343750 -0.749999
v -0.500000 0.406250 -0.749999
v -0.500000 0.343750 -0.781249
v -0.500000 0.343750 -0.843749
v -0.500000 0.218750 -0.843749
v -0.500000 0.218750 -0.781249
v -0.500000 0.218750 -0.906249
v -0.500000 0.156250 -0.906249
v -0.500000 0.156250 -0.718749
v -0.500000 0.218750 -0.718749
v 0.500000 0.343750 -0.781249
v -0.500000 0.343750 -0.781249
v -0.500000 0.218750 -0.781249
v 0.500000 0.218750 -0.781249
v -0.500000 0.218750 -0.718749
v -0.500000 0.156250 -0.718749
v 0.500000 0.156250 -0.718749
v 0.500000 0.218750 -0.718749
v 0.500000 0.343750 -0.749999
v -0.500000 0.343750 -0.749999
v -0.500000 0.343750 -0.874999
v 0.500000 0.343750 -0.874999
v -0.500000 0.343750 -0.749999
v 0.500000 0.343750 -0.749999
v 0.500000 0.406250 -0.749999
v -0.500000 0.406250 -0.749999
v -0.500000 0.156250 -0.718749
v -0.500000 0.156250 -0.906249
v 0.500000 0.156250 -0.906249
v 0.500000 0.156250 -0.718749
vt 0.171875 0.710937
vt 0.171875 0.703125
vt 0.187500 0.703125
vt 0.187500 0.710937
vt 0.593750 0.742187
vt 0.468750 0.742187
vt 0.468750 0.750000
vt 0.593750 0.750000
vt 0.187500 0.703125
vt 0.179688 0.703125
vt 0.179688 0.687500
vt 0.187500 0.687500
vt 0.171875 0.687500
vt 0.171875 0.679687
vt 0.195313 0.679687
vt 0.195313 0.687500
vt 0.593750 0.718750
vt 0.468750 0.718750
vt 0.468750 0.726562
vt 0.593750 0.726562
vt 0.046875 0.804688
vt 0.046875 0.828125
vt 0.171875 0.828125
vt 0.171875 0.804687
vt 0.593750 0.726562
vt 0.468750 0.726562
vt 0.468750 0.742187
vt 0.593750 0.742187
vt 0.414063 0.765625
vt 0.414063 0.750000
vt 0.289063 0.750000
vt 0.289063 0.765625
vt 0.187500 0.710937
vt 0.187500 0.703125
vt 0.171875 0.703125
vt 0.171875 0.710937
vt 0.179688 0.703125
vt 0.187500 0.703125
vt 0.187500 0.687500
vt 0.179688 0.687500
vt 0.195313 0.687500
vt 0.195313 0.679687
vt 0.171875 0.679687
vt 0.171875 0.687500
vt 0.609375 0.867188
vt 0.484375 0.867187
vt 0.484375 0.882812
vt 0.609375 0.882813
vt 0.468750 0.726562
vt 0.468750 0.718750
vt 0.593750 0.718750
vt 0.593750 0.726562
vt 0.296875 0.820313
vt 0.171875 0.820312
vt 0.171875 0.804687
vt 0.296875 0.804688
vt 0.289063 0.742188
vt 0.414063 0.742188
vt 0.414063 0.750000
vt 0.289063 0.750000
vt 0.171875 0.828125
vt 0.171875 0.804687
vt 0.296875 0.804688
vt 0.296875 0.828125
vn 1.0000 0.0000 0.0000
vn 0.0000 0.0000 -1.0000
vn 0.0000 1.0000 0.0000
vn -1.0000 0.0000 0.0000
vn 0.0000 0.0000 1.0000
vn 0.0000 -1.0000 0.0000
usemtl mat1
s off
f 65/65/7 66/66/7 67/67/7
f 67/67/7 68/68/7 65/65/7
f 69/69/8 70/70/8 71/71/8
f 71/71/8 72/72/8 69/69/8
f 73/73/7 74/74/7 75/75/7
f 75/75/7 76/76/7 73/73/7
f 77/77/7 78/78/7 79/79/7
f 79/79/7 80/80/7 77/77/7
f 81/81/8 82/82/8 83/83/8
f 83/83/8 84/84/8 81/81/8
f 85/85/9 86/86/9 87/87/9
f 87/87/9 88/88/9 85/85/9
f 89/89/8 90/90/8 91/91/8
f 91/91/8 92/92/8 89/89/8
f 93/93/9 94/94/9 95/95/9
f 95/95/9 96/96/9 93/93/9
f 97/97/10 98/98/10 99/99/10
f 99/99/10 100/100/10 97/97/10
f 101/101/10 102/102/10 103/103/10
f 103/103/10 104/104/10 101/101/10
f 105/105/10 106/106/10 107/107/10
f 107/107/10 108/108/10 105/105/10
f 109/109/11 110/110/11 111/111/11
f 111/111/11 112/112/11 109/109/11
f 113/113/11 114/114/11 115/115/11
f 115/115/11 116/116/11 113/113/11
f 117/117/12 118/118/12 119/119/12
f 119/119/12 120/120/12 117/117/12
f 121/121/11 122/122/11 123/123/11
f 123/123/11 124/124/11 121/121/11
f 125/125/12 126/126/12 127/127/12
f 127/127/12 128/128/12 125/125/12
o RAIL_BASE_mvpRail_WG
v 0.156250 0.000000 -1.312499
v -0.156250 0.000000 -1.312499
v -0.156250 0.187500 -1.312499
v 0.156250 0.187500 -1.312499
v -0.156250 0.187500 -1.312499
v -0.156250 0.000000 -1.312499
v -0.156250 -0.000000 1.312499
v -0.156250 0.187500 1.312499
v -0.156250 0.000000 -1.312499
v 0.156250 0.000000 -1.312499
v 0.156250 -0.000000 1.312499
v -0.156250 -0.000000 1.312499
v -0.156250 0.187500 1.312499
v -0.156250 -0.000000 1.312499
v 0.156250 -0.000000 1.312499
v 0.156250 0.187500 1.312499
v 0.156250 0.187500 1.312499
v 0.156250 -0.000000 1.312499
v 0.156250 0.000000 -1.312499
v 0.156250 0.187500 -1.312499
v -0.156250 0.187500 1.312499
v 0.156250 0.187500 1.312499
v 0.156250 0.187500 -1.312499
v -0.156250 0.187500 -1.312499
v 0.093750 0.191052 0.982740
v 0.093750 0.222621 0.920240
v -0.093750 0.222621 0.920240
v -0.093750 0.191052 0.982740
v 0.093750 0.222621 0.857740
v -0.093750 0.222621 0.857740
v 0.093750 0.222621 0.773689
v 0.093750 0.222621 0.711189
v -0.093750 0.222621 0.711189
v -0.093750 0.222621 0.773689
v 0.093750 0.191052 0.648689
v -0.093750 0.191052 0.648689
v -0.093750 0.191052 -0.648689
v 0.093750 0.191052 -0.648689
v 0.093750 0.222621 -0.711189
v -0.093750 0.222621 -0.711189
v 0.093750 0.222621 -0.773689
v -0.093750 0.222621 -0.773689
v -0.093750 0.222621 -0.857740
v 0.093750 0.222621 -0.857740
v 0.093749 0.222621 -0.920240
v -0.093750 0.222621 -0.920240
v 0.093750 0.191052 -0.982740
v -0.093750 0.191052 -0.982740
v 0.499972 0.125064 -0.624998
v -0.500028 0.125064 -0.625000
v -0.500028 0.125064 0.625000
v 0.499972 0.125064 0.624998
v -0.500028 0.062564 1.500000
v 0.499972 0.062564 1.499998
v 0.499972 0.062564 -1.499998
v -0.500028 0.062564 -1.500000
v -0.812528 -0.187436 0.625000
v -0.812528 -0.249936 1.500000
v -0.812528 -0.249936 1.500000
v -0.812528 -0.187436 0.625000
v -0.812528 -0.999936 0.625000
v -0.812528 -0.999936 2.062500
v 0.812472 -0.249936 1.499998
v 0.812472 -0.187436 0.624998
v 0.812472 -0.999936 0.624998
v 0.812472 -0.187436 0.624998
v 0.812472 -0.249936 1.499998
v 0.812472 -0.999936 2.062497
v -0.500027 -0.249936 1.875000
v 0.499973 -0.249936 1.874998
v 0.499973 -0.999936 2.437497
v -0.500027 -0.999936 2.437500
v -0.812528 -0.249936 1.500000
v 0.812472 -0.249936 1.499998
v 0.812472 -0.999936 2.062497
v -0.812528 -0.999936 2.062500
v 0.812472 -0.187436 -0.624998
v -0.812472 -0.187436 -0.624998
v -0.812528 -0.249936 -1.500000
v -0.812528 -0.999936 -0.625000
v -0.812472 -0.187436 -0.624998
v -0.812528 -0.249936 -1.500000
v -0.812528 -0.999936 -2.062500
v 0.812472 -0.249936 -1.499998
v 0.812472 -0.249936 -1.499998
v 0.812472 -0.187436 -0.624998
v 0.812472 -0.999936 -0.624998
v 0.812472 -0.999936 -2.062497
v -0.500027 -0.249936 -1.875000
v 0.499973 -0.249936 -1.874998
v 0.499973 -0.999936 -2.437497
v -0.500027 -0.999936 -2.437500
v -0.812528 -0.249936 -1.500000
v 0.812472 -0.249936 -1.499998
v 0.812472 -0.999936 -2.062497
v -0.812528 -0.999936 -2.062500
vt 0.195312 0.031250
vt 0.242187 0.031250
vt 0.242187 0.054687
vt 0.195312 0.054687
vt 0.085938 0.054687
vt 0.085938 0.031250
vt 0.414063 0.031250
vt 0.414063 0.054687
vt 0.414063 0.039062
vt 0.414063 0.007812
vt 0.085938 0.007813
vt 0.085938 0.039063
vt 0.242188 0.054687
vt 0.242188 0.031250
vt 0.195312 0.031250
vt 0.195312 0.054687
vt 0.414063 0.054687
vt 0.414063 0.031250
vt 0.085938 0.031250
vt 0.085938 0.054687
vt 0.351563 0.921874
vt 0.351563 0.953124
vt 0.023438 0.953125
vt 0.023438 0.921875
vt 0.875000 0.265625
vt 0.875000 0.273437
vt 0.898438 0.273437
vt 0.898438 0.265625
vt 0.875000 0.281250
vt 0.898438 0.281250
vt 0.898438 0.281250
vt 0.898438 0.273437
vt 0.875000 0.273437
vt 0.875000 0.281250
vt 0.898438 0.265625
vt 0.875000 0.265625
vt 0.875000 0.265625
vt 0.898438 0.265625
vt 0.898438 0.273437
vt 0.875000 0.273437
vt 0.898438 0.281250
vt 0.875000 0.281250
vt 0.898438 0.281250
vt 0.875000 0.281250
vt 0.875000 0.273437
vt 0.898438 0.273437
vt 0.875000 0.265625
vt 0.898438 0.265625
vt 0.453125 0.265625
vt 0.453125 0.390625
vt 0.296875 0.390625
vt 0.296875 0.265625
vt 0.187500 0.390625
vt 0.187500 0.265625
vt 0.562500 0.265625
vt 0.562500 0.390625
vt 0.296875 0.445312
vt 0.187500 0.445312
vt 0.453125 0.101562
vt 0.343750 0.109375
vt 0.343750 0.007812
vt 0.523438 0.007812
vt 0.187500 0.210938
vt 0.296875 0.210938
vt 0.187500 0.109375
vt 0.187500 0.210938
vt 0.078125 0.203125
vt 0.007812 0.109375
vt 0.125000 0.390625
vt 0.125000 0.265625
vt 0.007812 0.265625
vt 0.007812 0.390625
vt 0.156250 0.445312
vt 0.156250 0.210938
vt 0.039062 0.210938
vt 0.039062 0.445312
vt 0.453125 0.210938
vt 0.453125 0.445312
vt 0.562500 0.445312
vt 0.187500 0.007812
vt 0.187500 0.109375
vt 0.078125 0.101562
vt 0.007812 0.007812
vt 0.562500 0.210938
vt 0.453125 0.203125
vt 0.343750 0.210938
vt 0.343750 0.109375
vt 0.523438 0.109375
vt 0.625000 0.390625
vt 0.625000 0.265625
vt 0.742188 0.265625
vt 0.742188 0.390625
vt 0.593750 0.445312
vt 0.593750 0.210938
vt 0.710938 0.210938
vt 0.710938 0.445312
vn 0.0000 0.0000 -1.0000
vn -1.0000 0.0000 0.0000
vn 0.0000 -1.0000 -0.0000
vn 0.0000 0.0000 1.0000
vn 1.0000 0.0000 0.0000
vn 0.0000 1.0000 0.0000
vn 0.0000 0.8926 0.4509
vn 0.0000 0.8926 -0.4509
vn 0.0000 0.9975 0.0712
vn 0.0000 0.9975 -0.0712
vn -0.7062 0.7062 0.0504
vn 0.7062 0.7062 0.0504
vn 0.0000 0.7682 0.6402
vn 0.0000 0.6000 0.8000
vn -0.6092 0.6092 0.5077
vn 0.6092 0.6092 0.5077
vn 0.6925 0.4328 0.5771
vn -0.6925 0.4328 0.5771
vn 0.7071 0.7071 0.0000
vn -0.7071 0.7071 -0.0000
vn -0.7062 0.7062 -0.0504
vn 0.7062 0.7062 -0.0504
vn 0.0000 0.7682 -0.6402
vn 0.0000 0.6000 -0.8000
vn -0.6092 0.6092 -0.5077
vn 0.6092 0.6092 -0.5077
vn 0.6925 0.4328 -0.5771
vn -0.6925 0.4328 -0.5771
usemtl mat1
s off
f 129/129/13 130/130/13 131/131/13
f 131/131/13 132/132/13 129/129/13
f 133/133/14 134/134/14 135/135/14
f 135/135/14 136/136/14 133/133/14
f 137/137/15 138/138/15 139/139/15
f 139/139/15 140/140/15 137/137/15
f 141/141/16 142/142/16 143/143/16
f 143/143/16 144/144/16 141/141/16
f 145/145/17 146/146/17 147/147/17
f 147/147/17 148/148/17 145/145/17
f 149/149/18 150/150/18 151/151/18
f 151/151/18 152/152/18 149/149/18
f 153/153/19 154/154/19 155/155/19
f 155/155/19 156/156/19 153/153/19
f 155/155/18 154/154/18 157/157/18
f 157/157/18 158/158/18 155/155/18
f 159/159/18 160/160/18 161/161/18
f 161/161/18 162/162/18 159/159/18
f 161/161/20 160/160/20 163/163/20
f 163/163/20 164/164/20 161/161/20
f 165/165/19 166/166/19 167/167/19
f 167/167/19 168/168/19 165/165/19
f 167/167/18 169/169/18 170/170/18
f 170/170/18 168/168/18 167/167/18
f 171/171/18 172/172/18 173/173/18
f 173/173/18 174/174/18 171/171/18
f 173/173/20 175/175/20 176/176/20
f 176/176/20 174/174/20 173/173/20
usemtl mat2
f 177/177/18 178/178/18 179/179/18 180/180/18
f 180/180/21 179/179/21 181/181/21 182/182/21
f 178/178/22 177/177/22 183/183/22 184/184/22
f 181/181/23 179/179/23 185/185/23 186/186/23
f 187/187/14 188/188/14 189/189/14 190/190/14
f 180/180/24 182/182/24 191/191/24 192/192/24
f 193/193/17 194/194/17 195/195/17 196/196/17
f 182/182/25 181/181/25 197/197/25 198/198/25
f 199/199/26 198/198/26 197/197/26 200/200/26
f 197/197/27 181/181/27 201/201/27
f 202/202/28 182/182/28 198/198/28
f 203/203/29 202/202/29 198/198/29 199/199/29
f 200/200/30 197/197/30 201/201/30 204/204/30
f 205/205/31 177/177/31 180/180/31 192/192/31
f 179/179/32 178/178/32 206/206/32 185/185/32
f 206/206/33 178/178/33 184/184/33 207/207/33
f 208/208/14 209/209/14 210/210/14 211/211/14
f 212/212/34 183/183/34 177/177/34 205/205/34
f 213/213/17 214/214/17 215/215/17 216/216/17
f 217/217/35 184/184/35 183/183/35 218/218/35
f 217/217/36 218/218/36 219/219/36 220/220/36
f 184/184/37 217/217/37 221/221/37
f 183/183/38 222/222/38 218/218/38
f 218/218/39 222/222/39 223/223/39 219/219/39
f 221/221/40 217/217/40 220/220/40 224/224/40
f 189/189/14 188/188/14 209/209/14 208/208/14
f 215/215/17 214/214/17 194/194/17 193/193/17
