# Blender v2.79 (sub 0) OBJ File: ''
# www.blender.org
mtllib mvp_ir_grunt_c.mtl
o RAIL_RIGHT_mvpRail_CG
v 0.500000 0.406250 -0.749999
v 0.500000 0.343750 -0.749999
v 0.500000 0.343750 -0.874999
v 0.500000 0.406250 -0.874999
v 0.500000 0.343750 -0.874999
v -0.500000 0.343750 -0.874999
v -0.500000 0.406250 -0.874999
v 0.500000 0.406250 -0.874999
v 0.500000 0.343750 -0.843749
v 0.500000 0.343750 -0.781249
v 0.500000 0.218750 -0.781249
v 0.500000 0.218750 -0.843749
v 0.500000 0.218750 -0.718749
v 0.500000 0.156250 -0.718749
v 0.500000 0.156250 -0.906249
v 0.500000 0.218750 -0.906249
v 0.500000 0.156250 -0.906249
v -0.500000 0.156250 -0.906249
v -0.500000 0.218750 -0.906249
v 0.500000 0.218750 -0.906249
v -0.500000 0.218750 -0.906249
v -0.500000 0.218750 -0.718749
v 0.500000 0.218750 -0.718749
v 0.500000 0.218750 -0.906249
v 0.500000 0.218750 -0.843749
v -0.500000 0.218750 -0.843749
v -0.500000 0.343750 -0.843749
v 0.500000 0.343750 -0.843749
v 0.500000 0.406250 -0.749999
v 0.500000 0.406250 -0.874999
v -0.500000 0.406250 -0.874999
v -0.500000 0.406250 -0.749999
v -0.500000 0.406250 -0.874999
v -0.500000 0.343750 -0.874999
v -0.500000 0.343750 -0.749999
v -0.500000 0.406250 -0.749999
v -0.500000 0.343750 -0.781249
v -0.500000 0.343750 -0.843749
v -0.500000 0.218750 -0.843749
v -0.500000 0.218750 -0.781249
v -0.500000 0.218750 -0.906249
v -0.500000 0.156250 -0.906249
v -0.500000 0.156250 -0.718749
v -0.500000 0.218750 -0.718749
v 0.500000 0.343750 -0.781249
v -0.500000 0.343750 -0.781249
v -0.500000 0.218750 -0.781249
v 0.500000 0.218750 -0.781249
v -0.500000 0.218750 -0.718749
v -0.500000 0.156250 -0.718749
v 0.500000 0.156250 -0.718749
v 0.500000 0.218750 -0.718749
v 0.500000 0.343750 -0.749999
v -0.500000 0.343750 -0.749999
v -0.500000 0.343750 -0.874999
v 0.500000 0.343750 -0.874999
v -0.500000 0.343750 -0.749999
v 0.500000 0.343750 -0.749999
v 0.500000 0.406250 -0.749999
v -0.500000 0.406250 -0.749999
v -0.500000 0.156250 -0.718749
v -0.500000 0.156250 -0.906249
v 0.500000 0.156250 -0.906249
v 0.500000 0.156250 -0.718749
vt 0.171875 0.710937
vt 0.171875 0.703125
vt 0.187500 0.703125
vt 0.187500 0.710937
vt 0.593750 0.742187
vt 0.468750 0.742187
vt 0.468750 0.750000
vt 0.593750 0.750000
vt 0.187500 0.703125
vt 0.179688 0.703125
vt 0.179688 0.687500
vt 0.187500 0.687500
vt 0.171875 0.687500
vt 0.171875 0.679687
vt 0.195313 0.679687
vt 0.195313 0.687500
vt 0.593750 0.718750
vt 0.468750 0.718750
vt 0.468750 0.726562
vt 0.593750 0.726562
vt 0.046875 0.804688
vt 0.046875 0.828125
vt 0.171875 0.828125
vt 0.171875 0.804687
vt 0.593750 0.726562
vt 0.468750 0.726562
vt 0.468750 0.742187
vt 0.593750 0.742187
vt 0.414063 0.765625
vt 0.414063 0.750000
vt 0.289063 0.750000
vt 0.289063 0.765625
vt 0.187500 0.710937
vt 0.187500 0.703125
vt 0.171875 0.703125
vt 0.171875 0.710937
vt 0.179688 0.703125
vt 0.187500 0.703125
vt 0.187500 0.687500
vt 0.179688 0.687500
vt 0.195313 0.687500
vt 0.195313 0.679687
vt 0.171875 0.679687
vt 0.171875 0.687500
vt 0.609375 0.867188
vt 0.484375 0.867187
vt 0.484375 0.882812
vt 0.609375 0.882813
vt 0.468750 0.726562
vt 0.468750 0.718750
vt 0.593750 0.718750
vt 0.593750 0.726562
vt 0.296875 0.820313
vt 0.171875 0.820312
vt 0.171875 0.804687
vt 0.296875 0.804688
vt 0.289063 0.742188
vt 0.414063 0.742188
vt 0.414063 0.750000
vt 0.289063 0.750000
vt 0.171875 0.828125
vt 0.171875 0.804687
vt 0.296875 0.804688
vt 0.296875 0.828125
vn 1.0000 0.0000 0.0000
vn 0.0000 0.0000 -1.0000
vn 0.0000 1.0000 0.0000
vn -1.0000 0.0000 0.0000
vn 0.0000 0.0000 1.0000
vn 0.0000 -1.0000 0.0000
usemtl mat1
s off
f 1/1/1 2/2/1 3/3/1
f 3/3/1 4/4/1 1/1/1
f 5/5/2 6/6/2 7/7/2
f 7/7/2 8/8/2 5/5/2
f 9/9/1 10/10/1 11/11/1
f 11/11/1 12/12/1 9/9/1
f 13/13/1 14/14/1 15/15/1
f 15/15/1 16/16/1 13/13/1
f 17/17/2 18/18/2 19/19/2
f 19/19/2 20/20/2 17/17/2
f 21/21/3 22/22/3 23/23/3
f 23/23/3 24/24/3 21/21/3
f 25/25/2 26/26/2 27/27/2
f 27/27/2 28/28/2 25/25/2
f 29/29/3 30/30/3 31/31/3
f 31/31/3 32/32/3 29/29/3
f 33/33/4 34/34/4 35/35/4
f 35/35/4 36/36/4 33/33/4
f 37/37/4 38/38/4 39/39/4
f 39/39/4 40/40/4 37/37/4
f 41/41/4 42/42/4 43/43/4
f 43/43/4 44/44/4 41/41/4
f 45/45/5 46/46/5 47/47/5
f 47/47/5 48/48/5 45/45/5
f 49/49/5 50/50/5 51/51/5
f 51/51/5 52/52/5 49/49/5
f 53/53/6 54/54/6 55/55/6
f 55/55/6 56/56/6 53/53/6
f 57/57/5 58/58/5 59/59/5
f 59/59/5 60/60/5 57/57/5
f 61/61/6 62/62/6 63/63/6
f 63/63/6 64/64/6 61/61/6
o RAIL_BASE_mvpRail_CG
v -0.156278 0.000064 1.312502
v 0.156222 0.000064 1.312503
v 0.156222 0.187564 1.312503
v -0.156278 0.187564 1.312502
v -0.156278 0.000067 -1.312497
v -0.156278 0.187567 -1.312497
v 0.156222 0.000067 -1.312497
v 0.156222 0.187567 -1.312497
v 0.156222 0.000067 -1.312497
v 0.156222 0.187567 -1.312497
v -0.156278 0.187564 1.312502
v 0.156222 0.187564 1.312503
v 0.156222 0.250064 1.000003
v -0.156278 0.250064 1.000002
v -0.156278 0.187566 0.875003
v -0.156278 0.187564 1.312502
v -0.156278 0.250066 0.937503
v 0.156222 0.187566 0.875003
v -0.156278 0.187566 0.875003
v 0.156222 0.250066 0.937503
v 0.156222 0.187564 1.312503
v 0.156222 0.187566 0.875003
v 0.156222 0.250065 -1.000003
v 0.156222 0.187567 -1.312497
v -0.156278 0.187567 -1.312497
v -0.156278 0.250064 -1.000002
v -0.156278 0.187567 -1.312497
v -0.156278 0.187566 -0.875003
v -0.156278 0.250067 -0.937503
v -0.156278 0.187566 -0.875003
v 0.156222 0.187566 -0.875003
v 0.156222 0.250067 -0.937503
v 0.156222 0.187566 -0.875003
v 0.156222 0.187567 -1.312497
v 0.156222 0.250064 0.624997
v 0.156222 0.187564 0.312497
v -0.156278 0.187564 0.312498
v -0.156278 0.250064 0.624998
v -0.156278 0.187564 0.312498
v -0.156278 0.187566 0.749997
v -0.156278 0.250066 0.687497
v -0.156278 0.187566 0.749997
v 0.156222 0.187566 0.749997
v 0.156222 0.250066 0.687497
v 0.156222 0.187566 0.749997
v 0.156222 0.187564 0.312497
v -0.156278 0.187564 -0.312498
v 0.156222 0.187564 -0.312497
v 0.156222 0.250065 -0.624997
v -0.156278 0.250064 -0.624998
v -0.156278 0.187566 -0.749997
v -0.156278 0.187564 -0.312498
v -0.156278 0.250067 -0.687497
v 0.156222 0.187566 -0.749997
v -0.156278 0.187566 -0.749997
v 0.156222 0.250067 -0.687497
v 0.156222 0.187564 -0.312497
v 0.156222 0.187566 -0.749997
v -0.156278 0.000064 1.312502
v -0.156278 0.000067 -1.312497
v -0.093778 0.218814 1.062502
v 0.093722 0.218814 1.062503
v 0.093722 0.281314 1.062505
v -0.093778 0.281314 1.062504
v -0.093778 0.218816 0.875003
v -0.093778 0.281316 0.875005
v 0.093722 0.218816 0.875003
v 0.093722 0.281316 0.875005
v 0.093722 0.218814 1.062503
v 0.093722 0.281314 1.062505
v 0.093722 0.281316 0.875005
v -0.093778 0.281316 0.875005
v -0.044222 0.281314 0.937505
v -0.000028 0.281314 0.981700
v -0.000029 0.343814 0.981701
v -0.044223 0.343814 0.937507
v -0.000028 0.281316 0.893312
v -0.000029 0.343816 0.893313
v 0.044166 0.281316 0.937506
v 0.044165 0.343816 0.937507
v 0.044166 0.281316 0.937506
v 0.044165 0.343816 0.937507
v -0.000029 0.343816 0.893313
v -0.044223 0.343814 0.937507
v 0.093721 0.218814 0.562507
v -0.093778 0.218814 0.562506
v -0.093778 0.281314 0.562504
v 0.093721 0.281314 0.562505
v 0.093721 0.218816 0.750005
v 0.093721 0.218814 0.562507
v 0.093721 0.281314 0.562505
v 0.093721 0.281316 0.750003
v -0.093778 0.218816 0.750005
v -0.093778 0.281316 0.750003
v -0.093778 0.281316 0.750003
v 0.093721 0.281316 0.750003
v 0.044165 0.281314 0.687503
v -0.000029 0.281314 0.643309
v -0.000028 0.343814 0.643308
v 0.044166 0.343814 0.687502
v -0.000029 0.281316 0.731697
v 0.044165 0.281314 0.687503
v 0.044166 0.343814 0.687502
v -0.000028 0.343816 0.731696
v -0.044223 0.281316 0.687503
v -0.044222 0.343816 0.687502
v -0.044222 0.343816 0.687502
v -0.000028 0.343816 0.731696
v 0.093722 0.281314 -1.062505
v 0.093722 0.218814 -1.062503
v -0.093778 0.218814 -1.062502
v -0.093778 0.281314 -1.062504
v -0.093778 0.218816 -0.875003
v -0.093778 0.281316 -0.875005
v 0.093722 0.218816 -0.875003
v 0.093722 0.281316 -0.875005
v 0.093722 0.218814 -1.062503
v 0.093722 0.281314 -1.062505
v -0.093778 0.281316 -0.875005
v 0.093722 0.281316 -0.875005
v -0.000029 0.343814 -0.981701
v -0.000028 0.281314 -0.981700
v -0.044222 0.281314 -0.937505
v -0.044223 0.343814 -0.937507
v -0.000028 0.281316 -0.893312
v -0.000029 0.343816 -0.893313
v 0.044166 0.281316 -0.937506
v 0.044165 0.343816 -0.937507
v 0.044165 0.343816 -0.937507
v 0.044166 0.281316 -0.937506
v -0.044223 0.343814 -0.937507
v -0.000029 0.343816 -0.893313
v -0.093778 0.281314 -0.562504
v -0.093778 0.218814 -0.562506
v 0.093721 0.218814 -0.562507
v 0.093721 0.281314 -0.562505
v 0.093721 0.281314 -0.562505
v 0.093721 0.218814 -0.562507
v 0.093721 0.218816 -0.750005
v 0.093721 0.281316 -0.750003
v -0.093778 0.218816 -0.750005
v -0.093778 0.281316 -0.750003
v 0.093721 0.281316 -0.750003
v -0.093778 0.281316 -0.750003
v -0.000028 0.343814 -0.643308
v -0.000029 0.281314 -0.643309
v 0.044165 0.281314 -0.687503
v 0.044166 0.343814 -0.687502
v 0.044166 0.343814 -0.687502
v 0.044165 0.281314 -0.687503
v -0.000029 0.281316 -0.731697
v -0.000028 0.343816 -0.731696
v -0.044223 0.281316 -0.687503
v -0.044222 0.343816 -0.687502
v -0.000028 0.343816 -0.731696
v -0.044222 0.343816 -0.687502
v 0.499972 0.125064 -0.624998
v -0.500028 0.125064 -0.625000
v -0.500028 0.125064 0.625000
v 0.499972 0.125064 0.624998
v -0.500028 0.062564 1.500000
v 0.499972 0.062564 1.499998
v 0.499972 0.062564 -1.499998
v -0.500028 0.062564 -1.500000
v -0.812528 -0.187436 0.625000
v -0.812528 -0.249936 1.500000
v -0.812528 -0.249936 1.500000
v -0.812528 -0.187436 0.625000
v -0.812528 -0.999936 0.625000
v -0.812528 -0.999936 2.062500
v 0.812472 -0.249936 1.499998
v 0.812472 -0.187436 0.624998
v 0.812472 -0.999936 0.624998
v 0.812472 -0.187436 0.624998
v 0.812472 -0.249936 1.499998
v 0.812472 -0.999936 2.062497
v -0.500027 -0.249936 1.875000
v 0.499973 -0.249936 1.874998
v 0.499973 -0.999936 2.437497
v -0.500027 -0.999936 2.437500
v -0.812528 -0.249936 1.500000
v 0.812472 -0.249936 1.499998
v 0.812472 -0.999936 2.062497
v -0.812528 -0.999936 2.062500
v 0.812472 -0.187436 -0.624998
v -0.812472 -0.187436 -0.624998
v -0.812528 -0.249936 -1.500000
v -0.812528 -0.999936 -0.625000
v -0.812472 -0.187436 -0.624998
v -0.812528 -0.249936 -1.500000
v -0.812528 -0.999936 -2.062500
v 0.812472 -0.249936 -1.499998
v 0.812472 -0.249936 -1.499998
v 0.812472 -0.187436 -0.624998
v 0.812472 -0.999936 -0.624998
v 0.812472 -0.999936 -2.062497
v -0.500027 -0.249936 -1.875000
v 0.499973 -0.249936 -1.874998
v 0.499973 -0.999936 -2.437497
v -0.500027 -0.999936 -2.437500
v -0.812528 -0.249936 -1.500000
v 0.812472 -0.249936 -1.499998
v 0.812472 -0.999936 -2.062497
v -0.812528 -0.999936 -2.062500
vt 0.375000 0.156250
vt 0.335938 0.156250
vt 0.335938 0.132812
vt 0.375000 0.132812
vt 0.703125 0.156250
vt 0.703125 0.132812
vt 0.742188 0.156250
vt 0.742188 0.132812
vt 0.007812 0.156250
vt 0.007812 0.132812
vt 0.703125 0.171875
vt 0.703125 0.210938
vt 0.664062 0.210938
vt 0.664062 0.171875
vt 0.648438 0.164062
vt 0.703125 0.164062
vt 0.656250 0.171875
vt 0.648438 0.210938
vt 0.648438 0.171875
vt 0.656250 0.210938
vt 0.703125 0.218750
vt 0.648438 0.218750
vt 0.414062 0.210938
vt 0.375000 0.210938
vt 0.375000 0.171875
vt 0.414062 0.171875
vt 0.375000 0.164062
vt 0.429688 0.164062
vt 0.421875 0.171875
vt 0.429688 0.171875
vt 0.429688 0.210938
vt 0.421875 0.210938
vt 0.429688 0.218750
vt 0.375000 0.218750
vt 0.617188 0.210938
vt 0.578125 0.210938
vt 0.578125 0.171875
vt 0.617188 0.171875
vt 0.578125 0.164062
vt 0.632812 0.164062
vt 0.625000 0.171875
vt 0.632812 0.171875
vt 0.632812 0.210938
vt 0.625000 0.210938
vt 0.632812 0.218750
vt 0.578125 0.218750
vt 0.500000 0.171875
vt 0.500000 0.210938
vt 0.460938 0.210938
vt 0.460938 0.171875
vt 0.445312 0.164062
vt 0.500000 0.164062
vt 0.453125 0.171875
vt 0.445312 0.210938
vt 0.445312 0.171875
vt 0.453125 0.210938
vt 0.500000 0.218750
vt 0.445312 0.218750
vt 0.335938 0.195312
vt 0.007812 0.195312
vt 0.796875 0.890625
vt 0.820312 0.890625
vt 0.820312 0.898438
vt 0.796875 0.898438
vt 0.773438 0.890625
vt 0.773438 0.898438
vt 0.750000 0.890625
vt 0.750000 0.898438
vt 0.726562 0.890625
vt 0.726562 0.898438
vt 0.820312 0.921875
vt 0.796875 0.921875
vt 0.945312 0.906250
vt 0.945312 0.898438
vt 0.953125 0.898438
vt 0.953125 0.906250
vt 0.945312 0.914062
vt 0.953125 0.914062
vt 0.945312 0.921875
vt 0.953125 0.921875
vt 0.945312 0.890625
vt 0.953125 0.890625
vt 0.960938 0.890625
vt 0.960938 0.898438
vt 0.820312 0.890625
vt 0.843750 0.890625
vt 0.843750 0.898438
vt 0.820312 0.898438
vt 0.890625 0.890625
vt 0.914062 0.890625
vt 0.914062 0.898438
vt 0.890625 0.898438
vt 0.867188 0.890625
vt 0.867188 0.898438
vt 0.843750 0.921875
vt 0.820312 0.921875
vt 0.914062 0.906250
vt 0.921875 0.906250
vt 0.921875 0.914062
vt 0.914062 0.914062
vt 0.937500 0.906250
vt 0.945312 0.906250
vt 0.945312 0.914062
vt 0.937500 0.914062
vt 0.929688 0.906250
vt 0.929688 0.914062
vt 0.921875 0.921875
vt 0.914062 0.921875
vt 0.914062 0.921875
vt 0.914062 0.929688
vt 0.890625 0.929688
vt 0.890625 0.921875
vt 0.867188 0.929688
vt 0.867188 0.921875
vt 0.843750 0.929688
vt 0.843750 0.921875
vt 0.820312 0.929688
vt 0.820312 0.921875
vt 0.890625 0.898438
vt 0.914062 0.898438
vt 0.937500 0.921875
vt 0.937500 0.929688
vt 0.929688 0.929688
vt 0.929688 0.921875
vt 0.921875 0.929688
vt 0.921875 0.921875
vt 0.914062 0.929688
vt 0.914062 0.921875
vt 0.945312 0.921875
vt 0.945312 0.929688
vt 0.937500 0.914062
vt 0.945312 0.914062
vt 0.750000 0.921875
vt 0.750000 0.929688
vt 0.726562 0.929688
vt 0.726562 0.921875
vt 0.820312 0.921875
vt 0.820312 0.929688
vt 0.796875 0.929688
vt 0.796875 0.921875
vt 0.773438 0.929688
vt 0.773438 0.921875
vt 0.726562 0.898438
vt 0.750000 0.898438
vt 0.937500 0.898438
vt 0.937500 0.890625
vt 0.945312 0.890625
vt 0.945312 0.898438
vt 0.914062 0.898438
vt 0.914062 0.890625
vt 0.921875 0.890625
vt 0.921875 0.898438
vt 0.929688 0.890625
vt 0.929688 0.898438
vt 0.945312 0.906250
vt 0.937500 0.906250
vt 0.453125 0.265625
vt 0.453125 0.390625
vt 0.296875 0.390625
vt 0.296875 0.265625
vt 0.187500 0.390625
vt 0.187500 0.265625
vt 0.562500 0.265625
vt 0.562500 0.390625
vt 0.296875 0.445312
vt 0.187500 0.445312
vt 0.453125 0.101562
vt 0.343750 0.109375
vt 0.343750 0.007812
vt 0.523438 0.007812
vt 0.187500 0.210938
vt 0.296875 0.210938
vt 0.187500 0.109375
vt 0.187500 0.210938
vt 0.078125 0.203125
vt 0.007812 0.109375
vt 0.125000 0.390625
vt 0.125000 0.265625
vt 0.007812 0.265625
vt 0.007812 0.390625
vt 0.156250 0.445312
vt 0.156250 0.210938
vt 0.039062 0.210938
vt 0.039062 0.445312
vt 0.453125 0.210938
vt 0.453125 0.445312
vt 0.562500 0.445312
vt 0.187500 0.007812
vt 0.187500 0.109375
vt 0.078125 0.101562
vt 0.007812 0.007812
vt 0.562500 0.210938
vt 0.453125 0.203125
vt 0.343750 0.210938
vt 0.343750 0.109375
vt 0.523438 0.109375
vt 0.625000 0.390625
vt 0.625000 0.265625
vt 0.742188 0.265625
vt 0.742188 0.390625
vt 0.593750 0.445312
vt 0.593750 0.210938
vt 0.710938 0.210938
vt 0.710938 0.445312
vn -0.0000 0.0000 1.0000
vn -1.0000 0.0000 0.0000
vn 0.0000 0.0000 -1.0000
vn 1.0000 0.0000 0.0000
vn -0.0000 0.9806 0.1961
vn 0.0000 0.7071 -0.7071
vn -0.0000 1.0000 0.0000
vn -0.0000 0.9806 -0.1961
vn 0.0000 0.7071 0.7071
vn 0.0000 -1.0000 -0.0000
vn -0.7071 -0.0000 0.7071
vn -0.7071 0.0000 -0.7071
vn 0.7071 0.0000 -0.7071
vn 0.7071 0.0000 0.7071
vn 0.0000 0.9975 0.0712
vn 0.0000 0.9975 -0.0712
vn -0.7062 0.7062 0.0504
vn 0.7062 0.7062 0.0504
vn 0.0000 0.7682 0.6402
vn 0.0000 0.6000 0.8000
vn -0.6092 0.6092 0.5077
vn 0.6092 0.6092 0.5077
vn 0.6925 0.4328 0.5771
vn -0.6925 0.4328 0.5771
vn 0.7071 0.7071 0.0000
vn -0.7071 0.7071 -0.0000
vn -0.7062 0.7062 -0.0504
vn 0.7062 0.7062 -0.0504
vn 0.0000 0.7682 -0.6402
vn 0.0000 0.6000 -0.8000
vn -0.6092 0.6092 -0.5077
vn 0.6092 0.6092 -0.5077
vn 0.6925 0.4328 -0.5771
vn -0.6925 0.4328 -0.5771
usemtl mat1
s off
f 65/65/7 66/66/7 67/67/7 68/68/7
f 69/69/8 65/65/8 68/68/8 70/70/8
f 71/71/9 69/69/9 70/70/9 72/72/9
f 66/66/10 73/73/10 74/74/10 67/67/10
f 75/75/11 76/76/11 77/77/11 78/78/11
f 79/79/8 80/80/8 78/78/8 81/81/8
f 82/82/12 83/83/12 81/81/12 84/84/12
f 85/85/10 86/86/10 84/84/10 77/77/10
f 84/84/13 81/81/13 78/78/13 77/77/13
f 87/87/14 88/88/14 89/89/14 90/90/14
f 90/90/8 91/91/8 92/92/8 93/93/8
f 93/93/15 94/94/15 95/95/15 96/96/15
f 96/96/10 97/97/10 98/98/10 87/87/10
f 90/90/13 93/93/13 96/96/13 87/87/13
f 99/99/14 100/100/14 101/101/14 102/102/14
f 102/102/8 103/103/8 104/104/8 105/105/8
f 105/105/15 106/106/15 107/107/15 108/108/15
f 108/108/10 109/109/10 110/110/10 99/99/10
f 102/102/13 105/105/13 108/108/13 99/99/13
f 111/111/11 112/112/11 113/113/11 114/114/11
f 115/115/8 116/116/8 114/114/8 117/117/8
f 118/118/12 119/119/12 117/117/12 120/120/12
f 121/121/10 122/122/10 120/120/10 113/113/10
f 120/120/13 117/117/13 114/114/13 113/113/13
f 112/112/13 111/111/13 101/101/13 100/100/13
f 106/106/13 83/83/13 82/82/13 107/107/13
f 95/95/13 94/94/13 119/119/13 118/118/13
f 73/73/16 66/66/16 123/123/16 124/124/16
f 125/125/7 126/126/7 127/127/7 128/128/7
f 129/129/8 125/125/8 128/128/8 130/130/8
f 131/131/9 129/129/9 130/130/9 132/132/9
f 133/133/10 131/131/10 132/132/10 134/134/10
f 135/135/13 136/136/13 128/128/13 127/127/13
f 137/137/17 138/138/17 139/139/17 140/140/17
f 141/141/18 137/137/18 140/140/18 142/142/18
f 143/143/19 141/141/19 142/142/19 144/144/19
f 138/138/20 145/145/20 146/146/20 139/139/20
f 146/146/13 147/147/13 148/148/13 139/139/13
f 149/149/9 150/150/9 151/151/9 152/152/9
f 153/153/10 154/154/10 155/155/10 156/156/10
f 157/157/7 153/153/7 156/156/7 158/158/7
f 150/150/8 157/157/8 158/158/8 151/151/8
f 159/159/13 160/160/13 152/152/13 151/151/13
f 161/161/19 162/162/19 163/163/19 164/164/19
f 165/165/20 166/166/20 167/167/20 168/168/20
f 169/169/17 165/165/17 168/168/17 170/170/17
f 162/162/18 169/169/18 170/170/18 163/163/18
f 171/171/13 172/172/13 164/164/13 163/163/13
f 173/173/9 174/174/9 175/175/9 176/176/9
f 176/176/8 175/175/8 177/177/8 178/178/8
f 178/178/7 177/177/7 179/179/7 180/180/7
f 180/180/10 179/179/10 181/181/10 182/182/10
f 176/176/13 183/183/13 184/184/13 173/173/13
f 185/185/18 186/186/18 187/187/18 188/188/18
f 188/188/17 187/187/17 189/189/17 190/190/17
f 190/190/20 189/189/20 191/191/20 192/192/20
f 193/193/19 194/194/19 186/186/19 185/185/19
f 195/195/13 196/196/13 193/193/13 185/185/13
f 197/197/7 198/198/7 199/199/7 200/200/7
f 201/201/10 202/202/10 203/203/10 204/204/10
f 204/204/9 203/203/9 205/205/9 206/206/9
f 206/206/8 205/205/8 198/198/8 197/197/8
f 200/200/13 207/207/13 208/208/13 197/197/13
f 209/209/20 210/210/20 211/211/20 212/212/20
f 213/213/19 214/214/19 215/215/19 216/216/19
f 216/216/18 215/215/18 217/217/18 218/218/18
f 218/218/17 217/217/17 210/210/17 209/209/17
f 212/212/13 219/219/13 220/220/13 209/209/13
usemtl mat2
f 221/221/13 222/222/13 223/223/13 224/224/13
f 224/224/21 223/223/21 225/225/21 226/226/21
f 222/222/22 221/221/22 227/227/22 228/228/22
f 225/225/23 223/223/23 229/229/23 230/230/23
f 231/231/8 232/232/8 233/233/8 234/234/8
f 224/224/24 226/226/24 235/235/24 236/236/24
f 237/237/10 238/238/10 239/239/10 240/240/10
f 226/226/25 225/225/25 241/241/25 242/242/25
f 243/243/26 242/242/26 241/241/26 244/244/26
f 241/241/27 225/225/27 245/245/27
f 246/246/28 226/226/28 242/242/28
f 247/247/29 246/246/29 242/242/29 243/243/29
f 244/244/30 241/241/30 245/245/30 248/248/30
f 249/249/31 221/221/31 224/224/31 236/236/31
f 223/223/32 222/222/32 250/250/32 229/229/32
f 250/250/33 222/222/33 228/228/33 251/251/33
f 252/252/8 253/253/8 254/254/8 255/255/8
f 256/256/34 227/227/34 221/221/34 249/249/34
f 257/257/10 258/258/10 259/259/10 260/260/10
f 261/261/35 228/228/35 227/227/35 262/262/35
f 261/261/36 262/262/36 263/263/36 264/264/36
f 228/228/37 261/261/37 265/265/37
f 227/227/38 266/266/38 262/262/38
f 262/262/39 266/266/39 267/267/39 263/263/39
f 265/265/40 261/261/40 264/264/40 268/268/40
f 233/233/8 232/232/8 253/253/8 252/252/8
f 259/259/10 258/258/10 238/238/10 237/237/10
o RAIL_LEFT_mvpRail_CG
v 0.500000 0.218750 0.906249
v 0.500000 0.218750 0.718749
v -0.500000 0.218750 0.718749
v -0.500000 0.218750 0.906249
v -0.500000 0.218750 0.718749
v 0.500000 0.218750 0.718749
v 0.500000 0.156250 0.718749
v -0.500000 0.156250 0.718749
v 0.500000 0.156250 0.718749
v 0.500000 0.218750 0.718749
v 0.500000 0.218750 0.906249
v 0.500000 0.156250 0.906249
v -0.500000 0.343750 0.781249
v 0.500000 0.343750 0.781249
v 0.500000 0.218750 0.781249
v -0.500000 0.218750 0.781249
v 0.500000 0.218750 0.781249
v 0.500000 0.343750 0.781249
v 0.500000 0.343750 0.843749
v 0.500000 0.218750 0.843749
v 0.500000 0.343750 0.874999
v 0.500000 0.343750 0.749999
v 0.500000 0.406250 0.749999
v 0.500000 0.406250 0.874999
v 0.500000 0.406250 0.749999
v 0.500000 0.343750 0.749999
v -0.500000 0.343750 0.749999
v -0.500000 0.406250 0.749999
v -0.500000 0.406250 0.749999
v -0.500000 0.406250 0.874999
v 0.500000 0.406250 0.874999
v 0.500000 0.406250 0.749999
v -0.500000 0.406250 0.874999
v -0.500000 0.406250 0.749999
v -0.500000 0.343750 0.749999
v -0.500000 0.343750 0.874999
v -0.500000 0.343750 0.781249
v -0.500000 0.218750 0.781249
v -0.500000 0.218750 0.843749
v -0.500000 0.343750 0.843749
v -0.500000 0.218750 0.718749
v -0.500000 0.156250 0.718749
v -0.500000 0.156250 0.906249
v -0.500000 0.218750 0.906249
v 0.500000 0.406250 0.874999
v -0.500000 0.406250 0.874999
v -0.500000 0.343750 0.874999
v 0.500000 0.343750 0.874999
v -0.500000 0.343750 0.843749
v -0.500000 0.218750 0.843749
v 0.500000 0.218750 0.843749
v 0.500000 0.343750 0.843749
v 0.500000 0.218750 0.906249
v -0.500000 0.218750 0.906249
v -0.500000 0.156250 0.906249
v 0.500000 0.156250 0.906249
v 0.500000 0.343750 0.874999
v -0.500000 0.343750 0.874999
v -0.500000 0.343750 0.749999
v 0.500000 0.343750 0.749999
v -0.500000 0.156250 0.718749
v 0.500000 0.156250 0.718749
v 0.500000 0.156250 0.906249
v -0.500000 0.156250 0.906249
vt 0.171875 0.804687
vt 0.171875 0.828125
vt 0.046875 0.828125
vt 0.046875 0.804688
vt 0.468750 0.726562
vt 0.593750 0.726562
vt 0.593750 0.718750
vt 0.468750 0.718750
vt 0.171875 0.679687
vt 0.171875 0.687500
vt 0.195313 0.687500
vt 0.195313 0.679687
vt 0.484375 0.867187
vt 0.609375 0.867188
vt 0.609375 0.882813
vt 0.484375 0.882812
vt 0.179688 0.687500
vt 0.179688 0.703125
vt 0.187500 0.703125
vt 0.187500 0.687500
vt 0.187500 0.703125
vt 0.171875 0.703125
vt 0.171875 0.710937
vt 0.187500 0.710937
vt 0.414063 0.750000
vt 0.414063 0.742188
vt 0.289063 0.742188
vt 0.289063 0.750000
vt 0.289063 0.765625
vt 0.289063 0.750000
vt 0.414063 0.750000
vt 0.414063 0.765625
vt 0.187500 0.710937
vt 0.171875 0.710937
vt 0.171875 0.703125
vt 0.187500 0.703125
vt 0.179688 0.703125
vt 0.179688 0.687500
vt 0.187500 0.687500
vt 0.187500 0.703125
vt 0.171875 0.687500
vt 0.171875 0.679687
vt 0.195313 0.679687
vt 0.195313 0.687500
vt 0.593750 0.750000
vt 0.468750 0.750000
vt 0.468750 0.742187
vt 0.593750 0.742187
vt 0.468750 0.742187
vt 0.468750 0.726562
vt 0.593750 0.726562
vt 0.593750 0.742187
vt 0.593750 0.726562
vt 0.468750 0.726562
vt 0.468750 0.718750
vt 0.593750 0.718750
vt 0.296875 0.804688
vt 0.171875 0.804687
vt 0.171875 0.820312
vt 0.296875 0.820313
vt 0.171875 0.828125
vt 0.296875 0.828125
vt 0.296875 0.804688
vt 0.171875 0.804687
vn 0.0000 1.0000 0.0000
vn 0.0000 0.0000 -1.0000
vn 1.0000 0.0000 0.0000
vn -1.0000 0.0000 0.0000
vn 0.0000 0.0000 1.0000
vn 0.0000 -1.0000 -0.0000
usemtl mat1
s off
f 269/269/41 270/270/41 271/271/41
f 271/271/41 272/272/41 269/269/41
f 273/273/42 274/274/42 275/275/42
f 275/275/42 276/276/42 273/273/42
f 277/277/43 278/278/43 279/279/43
f 279/279/43 280/280/43 277/277/43
f 281/281/42 282/282/42 283/283/42
f 283/283/42 284/284/42 281/281/42
f 285/285/43 286/286/43 287/287/43
f 287/287/43 288/288/43 285/285/43
f 289/289/43 290/290/43 291/291/43
f 291/291/43 292/292/43 289/289/43
f 293/293/42 294/294/42 295/295/42
f 295/295/42 296/296/42 293/293/42
f 297/297/41 298/298/41 299/299/41
f 299/299/41 300/300/41 297/297/41
f 301/301/44 302/302/44 303/303/44
f 303/303/44 304/304/44 301/301/44
f 305/305/44 306/306/44 307/307/44
f 307/307/44 308/308/44 305/305/44
f 309/309/44 310/310/44 311/311/44
f 311/311/44 312/312/44 309/309/44
f 313/313/45 314/314/45 315/315/45
f 315/315/45 316/316/45 313/313/45
f 317/317/45 318/318/45 319/319/45
f 319/319/45 320/320/45 317/317/45
f 321/321/45 322/322/45 323/323/45
f 323/323/45 324/324/45 321/321/45
f 325/325/46 326/326/46 327/327/46
f 327/327/46 328/328/46 325/325/46
f 329/329/46 330/330/46 331/331/46
f 331/331/46 332/332/46 329/329/46
